{"glyphs":{"0":{"ha":704,"x_min":17,"x_max":682,"o":"m 358 842 q 488 869 450 869 q 575 842 525 869 q 638 796 607 825 q 681 742 668 767 q 645 510 711 671 q 467 222 579 350 q 342 107 383 131 q 231 83 301 83 q 64 142 122 83 q 17 220 24 182 q 22 369 10 258 q 91 638 35 497 q 189 792 147 779 q 358 842 190 792 m 467 633 q 465 689 485 688 q 350 647 444 692 q 275 588 303 622 q 233 503 247 554 q 207 342 207 407 q 233 278 207 278 q 352 420 258 278 q 467 633 446 563 z "},"1":{"ha":549,"x_min":13,"x_max":528,"o":"m 338 958 q 376 994 338 983 q 460 997 414 1006 q 526 964 507 988 q 476 625 556 932 q 399 331 424 419 q 348 179 375 243 q 303 103 321 115 q 249 89 285 92 q 168 124 192 82 q 156 251 144 165 q 215 456 168 336 q 190 481 224 479 q 129 478 171 482 q 14 515 14 464 q 168 736 14 574 q 288 876 238 810 q 338 958 338 942 z "},"2":{"ha":549,"x_min":14,"x_max":533,"o":"m 292 967 q 394 997 388 997 q 458 970 400 999 q 533 931 517 942 q 478 800 546 921 q 333 569 411 679 q 263 466 293 515 q 233 406 233 417 q 265 393 233 394 q 342 400 297 392 q 463 381 439 415 q 425 281 488 347 q 239 199 351 203 q 56 267 126 194 q 14 380 8 313 q 81 553 19 447 q 150 681 150 667 q 94 703 150 688 q 46 792 18 724 q 178 919 74 860 q 292 967 232 950 z "},"3":{"ha":686,"x_min":21,"x_max":674,"o":"m 303 914 q 428 946 361 943 q 548 930 494 949 q 637 872 601 911 q 672 783 672 833 q 647 732 672 767 q 586 664 622 697 l 497 581 l 572 506 q 624 436 603 471 q 644 383 644 401 q 569 250 644 338 q 419 125 493 163 q 205 83 343 83 q 33 125 67 83 q 22 193 0 164 q 106 222 43 222 q 281 278 172 222 q 403 375 389 333 q 311 472 422 414 q 208 553 226 517 q 233 633 190 589 q 250 660 253 653 q 222 667 247 667 q 184 678 206 667 q 150 703 163 689 q 162 802 117 740 q 303 914 207 864 z "},"4":{"ha":667,"x_min":14,"x_max":653,"o":"m 183 775 q 338 987 297 946 q 428 1022 378 1028 q 485 1001 472 1018 q 494 939 499 985 q 466 847 493 908 q 403 731 439 785 q 354 643 343 636 q 367 656 357 644 q 461 778 408 701 q 510 825 486 815 q 578 822 533 835 q 637 793 621 813 q 653 733 653 774 q 540 429 653 671 q 364 119 426 188 q 263 58 297 43 q 228 181 228 74 q 247 267 228 214 q 247 319 258 304 q 189 347 236 335 q 68 406 122 364 q 14 486 14 449 q 64 588 14 501 q 183 775 114 674 z "},"5":{"ha":806,"x_min":14,"x_max":792,"o":"m 114 931 q 227 978 157 967 q 489 994 297 990 q 646 998 590 997 q 736 994 701 999 q 781 983 771 990 q 792 961 792 975 q 718 873 792 915 q 525 808 644 831 q 292 728 292 763 q 367 633 292 714 q 339 286 528 464 q 177 197 258 214 q 47 228 96 181 q 15 299 10 265 q 63 333 19 333 q 172 388 107 333 q 236 478 236 442 q 164 586 236 508 q 105 671 133 618 q 69 767 76 724 q 60 867 53 840 q 114 931 67 893 z "},"6":{"ha":654,"x_min":17,"x_max":640,"o":"m 449 969 q 535 1003 490 994 q 610 1001 581 1013 q 640 964 640 990 q 608 909 640 953 q 532 819 575 865 q 382 607 382 656 q 418 569 382 581 q 551 442 539 532 q 463 253 564 351 q 367 181 404 196 q 263 172 329 167 q 164 199 192 179 q 99 292 136 219 q 18 422 43 401 q 22 462 7 429 q 68 533 38 494 q 254 772 122 599 q 357 890 299 832 q 449 969 415 949 m 335 406 q 307 417 335 417 q 288 408 296 417 q 279 386 279 399 q 288 372 279 375 q 307 375 296 369 q 335 406 335 389 z "},"7":{"ha":760,"x_min":14,"x_max":746,"o":"m 533 1042 q 622 1081 561 1076 q 728 1056 682 1085 q 746 1035 742 1047 q 742 997 750 1024 q 716 935 733 971 q 664 831 699 899 q 585 662 599 708 q 594 589 572 615 q 615 553 617 564 q 589 533 614 542 q 502 467 557 524 q 342 281 447 410 q 238 208 276 201 q 200 303 200 214 q 181 372 200 347 q 111 419 163 397 q 14 521 8 464 q 113 597 19 574 q 228 611 163 611 q 339 664 307 611 q 340 668 339 665 q 353 732 368 724 q 225 739 339 740 q 105 747 143 736 q 44 789 67 758 q 35 879 7 842 q 142 917 64 917 q 364 961 224 917 q 533 1042 504 1006 z "},"8":{"ha":697,"x_min":14,"x_max":588,"o":"m 454 1008 q 515 1090 488 1069 q 588 1111 542 1111 q 588 818 782 1111 q 513 714 554 769 q 393 456 408 576 q 310 263 381 358 q 182 167 240 167 q 133 181 164 167 q 76 217 103 196 q 15 361 7 274 q 104 553 22 449 q 177 669 168 633 q 168 797 186 704 q 164 991 140 922 q 254 1050 188 1060 q 302 1026 286 1046 q 324 964 318 1006 q 386 914 333 867 q 454 1008 417 939 z "},"9":{"ha":636,"x_min":14,"x_max":621,"o":"m 306 983 q 445 1025 385 1025 q 564 983 506 1025 q 621 847 628 939 q 528 511 614 754 q 338 15 376 86 q 219 -56 299 -56 q 141 -44 153 -56 q 142 22 129 -32 q 197 208 161 93 q 225 299 217 265 q 232 353 233 332 q 219 382 231 375 q 186 389 208 389 q 67 440 119 389 q 14 558 14 492 q 91 800 14 688 q 306 983 168 913 m 431 856 q 385 882 431 903 q 319 833 356 869 q 242 719 276 790 q 208 603 208 647 q 300 672 210 575 q 428 842 404 786 q 431 856 431 850 z "}," ":{"ha":583,"x_min":0,"x_max":0,"o":""},"!":{"ha":465,"x_min":14,"x_max":453,"o":"m 272 967 q 417 944 331 1038 q 452 880 451 906 q 419 769 453 854 q 286 516 361 615 q 156 417 211 417 q 102 433 110 417 q 108 522 94 450 q 178 763 121 606 q 272 967 236 921 m 50 203 q 135 186 89 218 q 181 111 181 154 q 157 47 181 60 q 78 58 133 35 q 26 101 44 71 q 15 162 8 132 q 50 203 21 192 z "},"#":{"ha":896,"x_min":14,"x_max":882,"o":"m 728 1006 q 778 1025 760 1028 q 842 989 797 1022 q 882 935 881 963 q 847 800 883 908 q 802 596 803 657 q 844 517 801 535 q 874 494 872 506 q 856 458 876 483 q 819 429 840 442 q 783 417 797 417 q 744 389 744 417 q 761 369 744 378 q 800 361 778 361 q 853 322 856 361 q 783 231 851 279 q 726 166 753 208 q 692 83 700 124 q 650 -3 679 22 q 587 -9 621 -28 q 525 67 553 10 q 488 129 499 125 q 450 97 476 133 q 411 -6 411 49 q 391 -45 411 -35 q 314 -56 371 -56 q 236 -44 256 -56 q 217 0 217 -33 q 206 40 217 24 q 178 56 194 56 q 78 106 138 56 l 14 158 l 81 203 q 206 250 142 250 q 284 298 264 250 q 258 375 304 346 q 153 449 176 425 q 144 494 131 474 q 225 528 164 528 q 328 563 296 528 q 403 722 361 599 q 494 878 442 843 q 594 850 547 913 q 627 828 615 821 q 664 894 639 836 q 697 964 678 931 q 728 1006 717 997 z "},"$":{"ha":638,"x_min":14,"x_max":624,"o":"m 267 969 q 412 1076 342 1060 q 514 1028 482 1092 q 622 793 617 821 q 607 754 628 769 q 597 747 606 753 q 508 733 557 722 q 467 720 482 739 q 442 647 453 701 q 443 544 432 592 q 497 414 454 497 q 563 198 575 272 q 442 69 551 124 q 281 -25 322 13 q 225 -35 251 -50 q 125 58 199 -21 q 14 272 18 181 q 38 358 14 346 q 94 314 61 369 q 117 283 104 293 q 136 281 129 274 q 181 457 163 306 q 189 711 200 608 q 190 851 178 811 q 267 969 203 890 z "},"%":{"ha":940,"x_min":14,"x_max":917,"o":"m 132 867 q 277 901 182 903 q 432 861 372 899 q 494 836 469 836 q 563 861 519 836 q 634 883 606 882 q 704 867 663 885 l 776 833 l 654 658 q 499 425 542 500 q 485 378 478 382 q 596 403 494 372 q 792 416 704 436 q 915 331 879 396 q 915 232 936 290 q 847 123 893 174 q 735 36 800 72 q 613 0 671 0 q 460 58 536 0 q 385 175 385 117 q 376 214 385 214 q 315 153 365 214 q 261 76 286 119 q 229 8 236 33 q 197 -42 219 -29 q 121 -56 175 -56 q 42 -42 68 -56 q 15 4 17 -29 q 35 90 13 38 q 107 225 58 142 q 185 365 153 301 q 218 439 218 428 q 151 500 218 458 q 53 606 82 536 q 46 749 25 676 q 132 867 67 822 m 301 708 q 313 749 332 743 q 307 750 310 750 q 261 721 282 750 q 254 678 240 692 q 265 677 258 675 q 281 688 271 679 q 301 708 292 696 z "},"&":{"ha":826,"x_min":14,"x_max":808,"o":"m 389 986 q 522 1023 458 1033 q 656 942 585 1013 q 751 703 747 853 q 672 389 756 553 q 631 239 618 283 q 731 194 644 194 q 808 147 788 194 q 786 61 828 100 q 730 34 761 36 q 617 53 699 32 q 494 69 526 75 q 394 14 461 64 q 133 -28 249 -99 q 14 242 17 42 q 72 475 14 419 q 236 456 131 531 l 297 414 l 281 561 q 295 820 264 697 q 389 986 326 943 m 539 661 q 539 772 549 722 q 528 761 531 797 q 528 708 526 742 q 535 644 528 639 q 539 661 536 646 m 297 192 q 286 214 297 203 q 258 231 275 225 q 226 225 239 239 q 208 181 213 211 q 206 130 200 136 q 244 142 211 124 q 282 167 267 151 q 297 192 297 183 z "},"(":{"ha":660,"x_min":14,"x_max":644,"o":"m 364 969 q 449 1042 422 1021 q 503 1073 475 1063 q 547 1078 531 1083 q 597 1056 564 1072 q 643 974 658 1022 q 528 822 628 925 q 356 600 421 717 q 247 317 292 483 q 220 173 221 215 q 244 81 219 131 q 242 -40 288 -3 q 136 -39 201 -75 q 67 22 99 -18 q 15 213 14 88 q 58 473 15 338 q 182 745 100 608 q 364 969 264 882 z "},")":{"ha":643,"x_min":24,"x_max":625,"o":"m 364 953 q 356 1015 349 1003 q 408 1028 364 1028 q 553 966 496 1026 q 624 810 610 906 q 613 591 639 715 q 517 347 586 467 q 390 169 458 244 q 256 57 321 94 q 130 20 190 19 q 25 64 69 21 q 25 119 4 85 q 128 233 46 154 q 248 372 186 289 q 339 517 310 456 q 398 712 393 629 q 364 953 403 794 z "},"*":{"ha":571,"x_min":14,"x_max":557,"o":"m 81 917 q 163 943 101 949 q 267 900 224 938 q 315 870 296 874 q 356 886 333 867 q 403 908 372 900 q 461 911 435 915 q 512 889 500 907 q 519 822 524 871 q 525 753 518 788 q 544 703 532 718 q 556 660 561 682 q 517 603 550 638 q 476 546 483 567 q 486 508 469 525 q 506 460 508 482 q 473 428 503 439 q 403 428 443 418 q 249 461 299 450 q 163 483 199 472 q 120 501 128 493 q 114 519 113 508 q 102 555 117 532 q 67 597 88 578 q 14 679 17 643 q 53 750 11 715 q 79 790 71 764 q 81 836 88 815 q 74 881 74 858 q 81 917 74 903 z "},"+":{"ha":703,"x_min":15,"x_max":689,"o":"m 308 942 q 419 928 369 975 q 475 783 469 881 q 494 688 482 703 q 561 683 507 672 q 672 658 635 700 q 688 613 693 631 q 644 558 683 594 q 531 483 579 503 q 481 378 481 467 q 451 263 481 303 q 367 222 421 222 q 316 251 332 222 q 275 397 300 281 q 203 472 258 472 q 145 492 183 472 q 72 539 107 511 q 16 602 22 583 q 33 650 10 621 q 84 681 54 675 q 164 678 114 688 l 258 661 l 258 786 q 270 892 258 856 q 308 942 282 928 z "},",":{"ha":397,"x_min":14,"x_max":382,"o":"m 92 186 q 167 305 138 276 q 242 333 196 333 q 307 317 275 333 q 358 272 339 300 q 381 205 390 229 q 300 106 372 181 q 200 23 242 46 q 106 0 158 0 q 14 19 14 0 q 92 186 14 46 z "},"-":{"ha":563,"x_min":15,"x_max":549,"o":"m 74 533 q 329 528 117 543 q 499 508 456 519 q 549 467 542 496 q 535 421 553 449 q 488 372 517 393 q 342 336 440 343 q 153 347 243 329 q 38 400 63 365 q 17 484 6 443 q 74 533 28 525 z "},".":{"ha":239,"x_min":21,"x_max":225,"o":"m 33 294 q 110 333 64 332 q 191 301 157 333 q 225 219 225 268 q 193 153 225 172 q 103 150 161 135 q 22 210 44 165 q 33 294 0 254 z "},"/":{"ha":706,"x_min":14,"x_max":692,"o":"m 333 689 q 460 869 403 794 q 531 944 518 944 q 628 892 565 944 l 692 839 l 583 664 q 340 301 486 503 q 144 58 193 99 q 56 40 99 21 q 14 117 14 58 q 76 281 14 169 q 333 689 139 392 z "},":":{"ha":376,"x_min":19,"x_max":358,"o":"m 186 686 q 247 722 211 717 q 310 712 282 728 q 354 663 339 696 q 358 589 369 629 q 334 544 350 553 q 283 544 318 535 q 188 606 218 563 q 186 686 158 650 m 36 258 q 66 272 42 267 q 117 278 90 278 q 205 230 175 278 q 208 133 235 182 q 171 101 192 104 q 100 117 150 97 q 21 181 42 136 q 36 258 0 225 z "},";":{"ha":490,"x_min":14,"x_max":475,"o":"m 264 736 q 328 776 297 776 q 406 733 360 775 q 437 640 447 696 q 375 583 426 583 q 327 600 356 583 q 278 639 299 617 q 245 691 247 672 q 264 736 243 710 m 289 319 q 357 342 332 342 q 417 322 382 343 q 474 221 488 275 q 356 69 461 167 q 228 -31 274 -7 q 119 -56 182 -56 q 14 -36 14 -56 q 126 147 14 1 q 289 319 239 293 z "},"<":{"ha":675,"x_min":14,"x_max":649,"o":"m 260 711 q 513 839 439 825 q 640 786 586 853 q 648 715 674 743 q 468 594 622 686 q 342 508 390 546 q 296 458 293 471 q 351 426 299 449 q 474 383 403 404 q 614 236 749 300 q 579 222 599 229 q 442 210 517 206 q 288 245 367 215 q 147 313 210 275 q 47 401 85 351 q 15 494 8 450 q 69 581 18 536 q 260 711 119 625 z "},"=":{"ha":715,"x_min":18,"x_max":701,"o":"m 38 678 q 235 722 78 722 q 567 643 576 722 q 507 575 563 614 l 443 531 l 526 525 q 604 520 579 522 q 651 515 629 518 q 681 505 674 511 q 694 490 689 499 q 701 467 699 482 q 681 423 706 442 q 590 386 656 404 q 292 345 471 353 q 63 364 113 338 q 19 415 31 382 q 21 479 7 449 q 68 519 35 510 q 102 532 96 526 q 101 548 108 538 q 63 583 94 558 q 18 631 22 614 q 38 678 14 649 z "},">":{"ha":635,"x_min":31,"x_max":615,"o":"m 31 772 q 33 775 32 774 q 83 803 61 803 q 208 771 106 803 q 222 767 218 768 q 603 539 549 665 q 615 458 628 486 q 517 347 603 431 q 342 228 426 261 q 133 194 258 194 q 42 225 51 194 q 100 297 32 256 q 278 422 197 358 q 358 503 358 486 q 242 553 358 522 q 97 603 135 581 q 31 683 60 626 q 31 772 0 742 z "},"?":{"ha":535,"x_min":19,"x_max":513,"o":"m 176 967 q 396 993 317 1006 q 513 914 475 981 q 505 839 529 881 q 379 692 481 797 q 297 602 324 633 q 256 548 269 571 q 247 515 243 525 q 268 497 251 506 q 314 421 308 474 q 285 347 319 368 q 188 347 256 328 q 82 406 119 367 q 40 524 40 447 q 79 658 39 600 q 106 720 108 701 q 65 778 104 739 q 20 888 -4 847 q 176 967 44 929 m 101 122 q 171 165 118 164 q 260 125 224 167 q 280 58 281 93 q 256 -2 279 24 q 199 -22 232 -28 q 115 31 144 -14 q 101 122 85 76 z "},"@":{"ha":910,"x_min":15,"x_max":897,"o":"m 438 911 q 642 933 556 953 q 821 819 728 913 q 881 733 865 774 q 896 619 896 692 q 844 400 896 517 q 732 250 793 283 q 605 224 674 219 q 507 264 536 228 q 428 304 475 303 q 396 283 396 306 q 376 254 396 272 q 326 222 356 236 q 294 151 239 174 q 399 139 326 139 q 446 44 582 139 q 126 92 297 -62 q 42 196 61 153 q 15 336 22 239 q 113 683 1 531 q 438 911 225 836 m 696 675 q 632 775 688 763 q 594 774 597 782 q 618 736 592 767 q 644 675 635 718 q 651 589 654 632 q 657 513 646 513 q 676 536 663 513 q 694 597 688 556 q 696 675 700 639 m 379 556 q 409 616 399 593 q 415 639 419 639 q 356 566 401 639 q 318 483 310 493 q 330 490 321 481 q 352 516 339 499 q 379 556 365 533 z "},"A":{"ha":701,"x_min":14,"x_max":683,"o":"m 467 950 q 546 1023 510 1014 q 633 994 582 1032 q 680 780 668 968 q 683 175 692 592 l 681 -53 l 606 -44 q 492 203 471 -28 l 503 306 l 375 306 q 262 291 292 306 q 200 222 232 276 q 90 140 163 160 q 17 161 28 122 q 14 175 14 167 q 91 359 14 217 q 278 664 168 501 q 467 950 396 838 m 514 597 q 503 694 514 694 q 433 614 490 694 q 375 517 375 533 q 444 500 375 500 q 502 517 490 500 q 514 597 514 533 z "},"B":{"ha":829,"x_min":18,"x_max":815,"o":"m 314 1092 q 536 1108 349 1103 q 686 1101 635 1111 q 767 1064 738 1090 q 815 968 814 1022 q 769 867 815 914 q 718 813 735 831 q 686 773 701 794 q 668 741 671 751 q 669 711 665 731 q 681 677 672 692 q 706 633 689 663 q 461 211 889 333 q 235 169 318 171 q 78 200 153 167 q 19 247 29 224 q 19 342 10 269 q 94 606 32 426 q 223 936 156 786 q 314 1092 290 1086 m 594 953 q 542 968 594 982 q 461 928 503 958 q 401 835 415 897 q 422 778 393 782 q 519 855 443 778 q 594 953 594 932 m 553 528 q 533 586 553 574 q 436 606 514 599 q 389 609 406 608 q 355 606 372 610 q 330 598 338 603 q 311 580 322 593 q 294 553 300 567 q 275 511 288 539 q 254 457 261 478 q 241 417 247 436 q 237 390 235 399 q 242 374 239 381 q 257 366 246 367 q 282 367 268 365 q 319 372 296 368 q 553 528 553 417 z "},"C":{"ha":851,"x_min":42,"x_max":838,"o":"m 438 1072 q 574 1096 501 1096 q 704 1077 647 1096 q 799 1022 761 1058 q 838 942 838 986 q 826 897 838 904 q 776 903 814 890 q 601 933 660 939 q 457 872 542 928 q 288 695 353 804 q 232 494 224 586 l 240 403 l 463 403 q 548 402 515 403 q 608 399 581 401 q 649 394 636 397 q 670 385 661 392 q 682 370 679 378 q 685 350 685 363 q 656 296 685 325 q 576 242 626 267 q 460 200 503 204 q 315 217 417 196 q 49 368 117 258 q 43 661 -18 478 q 203 906 85 782 q 438 1072 321 1029 z "},"D":{"ha":744,"x_min":15,"x_max":731,"o":"m 190 967 q 235 1038 213 1021 q 307 1056 258 1056 q 529 1019 435 1056 q 672 915 624 982 q 730 759 721 847 q 698 563 739 671 q 571 342 657 454 q 399 221 501 250 q 174 228 296 192 q 94 254 122 243 q 44 287 65 265 q 17 330 22 308 q 16 395 11 351 q 34 487 21 439 q 74 617 47 535 q 190 967 154 875 m 515 725 q 499 821 528 788 q 415 842 471 854 q 344 731 393 836 q 260 516 294 625 q 240 394 225 407 q 269 394 246 388 q 321 414 293 400 q 432 539 372 443 q 515 725 492 635 z "},"E":{"ha":821,"x_min":14,"x_max":788,"o":"m 210 1064 q 211 1089 206 1081 q 247 1103 217 1097 q 326 1110 276 1108 q 476 1111 376 1111 q 703 1103 639 1111 q 788 1069 767 1094 q 689 958 854 989 q 576 944 642 950 q 501 938 525 940 q 449 931 476 936 q 413 920 422 925 q 390 902 404 915 q 371 876 376 889 q 354 839 365 864 l 318 747 l 488 756 q 628 753 592 760 q 668 722 664 747 q 624 654 674 694 q 502 585 575 614 q 376 556 429 556 q 251 513 294 556 q 215 394 208 469 q 218 364 217 374 q 225 343 219 354 q 240 330 231 332 q 265 324 249 328 q 304 322 281 319 q 363 322 328 324 q 480 315 450 325 q 518 275 510 306 q 456 167 536 204 q 260 144 375 129 q 76 225 144 160 q 46 253 56 243 q 28 281 36 263 q 17 310 19 299 q 14 355 14 322 q 16 414 14 388 q 24 500 18 440 q 47 658 32 593 q 79 739 63 724 q 170 894 121 769 q 210 1064 219 1018 z "},"F":{"ha":849,"x_min":17,"x_max":824,"o":"m 303 1050 q 394 1064 318 1058 q 564 1069 469 1069 q 756 1060 707 1069 q 822 1019 804 1050 q 801 931 854 967 q 611 881 747 894 q 413 807 464 863 q 425 742 376 767 q 536 722 461 722 q 664 678 649 722 q 626 585 685 622 q 450 544 568 549 l 303 542 l 244 375 q 185 239 208 269 q 119 208 163 208 q 17 271 32 208 q 56 483 3 333 q 94 622 81 558 q 100 706 107 686 q 104 742 94 722 q 136 775 114 763 q 185 826 160 785 q 228 917 211 867 q 265 1003 243 964 q 303 1050 288 1042 z "},"G":{"ha":849,"x_min":19,"x_max":831,"o":"m 342 1042 q 590 1110 475 1108 q 769 1050 704 1113 q 831 957 817 1006 q 817 881 844 908 q 770 881 807 869 q 700 915 733 893 q 667 953 667 938 q 571 958 667 988 q 394 872 472 929 q 265 709 314 810 q 221 526 215 608 q 289 428 226 444 q 451 424 363 411 q 550 467 540 436 q 552 482 554 476 q 543 490 550 488 q 524 491 536 492 q 492 486 511 490 q 361 501 419 468 q 311 589 303 535 q 353 648 315 622 q 478 706 390 674 l 636 764 l 714 706 q 800 561 792 644 q 770 405 807 499 q 683 264 733 311 q 549 240 664 246 q 286 244 435 233 q 127 339 219 251 q 19 497 35 426 q 87 799 -8 639 q 342 1042 182 960 z "},"H":{"ha":882,"x_min":15,"x_max":867,"o":"m 146 911 q 172 995 164 969 q 192 1049 179 1021 q 210 1086 204 1078 q 233 1103 217 1094 q 261 1111 249 1111 q 301 1111 274 1111 q 372 1104 339 1111 q 410 1089 404 1097 q 368 889 425 1065 q 333 760 347 819 q 321 689 319 700 q 391 706 329 665 q 523 820 453 747 q 624 950 593 893 q 725 1069 681 1049 q 829 1044 769 1090 q 831 1043 831 1044 q 866 968 874 1014 q 771 681 858 922 q 765 667 768 672 q 665 356 700 485 q 620 231 642 267 q 571 194 599 194 q 483 239 511 194 q 454 378 454 283 l 454 492 l 343 464 q 265 433 299 451 q 232 403 232 415 q 201 272 232 374 q 142 172 179 186 q 49 214 106 158 q 16 289 21 243 q 21 456 11 335 q 63 678 42 653 q 97 760 72 690 q 146 911 122 831 z "},"I":{"ha":403,"x_min":14,"x_max":388,"o":"m 196 1078 q 224 1102 200 1094 q 282 1106 249 1110 q 347 1085 324 1101 q 381 1038 369 1069 q 388 948 393 1006 q 365 812 382 890 q 315 614 347 733 q 279 484 296 540 q 246 381 263 428 q 215 300 229 333 q 188 242 201 267 q 160 205 174 218 q 131 186 146 192 q 102 183 117 181 q 71 194 88 185 q 15 353 8 228 q 99 744 21 478 q 196 1078 129 847 z "},"J":{"ha":819,"x_min":14,"x_max":801,"o":"m 449 1053 q 669 1108 565 1106 q 801 1061 774 1111 q 756 790 824 1019 q 624 464 688 561 q 499 349 578 392 q 354 317 419 306 q 235 331 294 331 q 135 361 190 333 q 43 426 79 389 q 15 486 7 463 q 71 519 26 510 q 224 528 115 528 q 395 540 365 528 q 454 619 425 551 q 517 819 526 796 q 476 822 511 833 q 399 831 443 811 q 327 888 354 851 q 313 953 300 924 q 358 1000 318 971 q 449 1053 399 1029 z "},"K":{"ha":781,"x_min":17,"x_max":763,"o":"m 231 903 q 278 1092 267 1074 q 310 1113 289 1110 q 354 1103 331 1115 q 400 1072 378 1092 q 438 1022 422 1051 q 458 964 454 993 l 467 892 l 561 936 q 601 956 589 950 q 628 965 613 961 q 650 967 644 968 q 667 960 656 967 q 686 944 679 953 q 708 917 693 936 q 745 856 744 874 q 714 803 746 838 q 633 750 667 750 q 592 730 621 750 q 539 683 564 710 l 478 617 l 547 475 q 622 358 576 417 q 703 275 668 300 q 762 215 751 238 q 756 161 772 193 q 724 126 746 140 q 683 111 703 111 q 535 179 628 111 q 394 325 443 247 l 331 428 l 256 256 q 178 115 206 146 q 106 83 151 83 q 18 135 33 83 q 44 294 3 186 q 70 394 61 343 q 73 467 79 444 q 83 535 67 489 q 128 628 99 582 q 188 755 158 675 q 231 903 218 835 z "},"L":{"ha":735,"x_min":15,"x_max":710,"o":"m 317 1000 q 360 1093 340 1075 q 442 1111 379 1111 q 512 1103 479 1111 q 550 1083 544 1094 q 508 877 567 1057 q 372 536 450 697 q 272 308 294 381 q 267 256 258 263 q 331 261 276 249 q 586 299 500 297 q 700 269 672 300 q 710 190 736 224 q 572 108 683 156 q 297 56 458 58 q 69 100 136 54 q 16 179 24 132 q 38 317 8 226 q 147 583 67 407 q 317 1000 293 913 z "},"M":{"ha":1154,"x_min":13,"x_max":1142,"o":"m 207 758 q 288 919 258 863 q 341 1020 317 976 q 383 1081 365 1064 q 417 1104 401 1097 q 454 1111 432 1111 q 516 1099 483 1111 q 563 1069 549 1086 q 594 869 589 1038 q 574 664 599 701 q 570 646 568 653 q 582 639 572 639 q 647 708 592 642 q 765 864 701 775 q 948 1083 892 1039 q 1057 1092 1004 1126 q 1106 1055 1089 1074 q 1133 1009 1122 1036 q 1141 934 1143 982 q 1132 826 1139 886 q 1107 664 1125 767 q 1066 432 1083 519 q 1032 278 1049 344 q 998 181 1015 213 q 962 135 981 150 q 915 117 943 121 q 810 172 835 107 q 813 392 786 238 q 832 572 843 561 q 810 555 829 576 q 762 492 792 533 q 699 403 732 451 q 585 252 619 282 q 488 222 550 222 q 379 265 415 222 q 335 403 343 307 q 324 457 331 453 q 293 428 317 461 q 257 333 257 376 q 232 253 257 290 q 172 196 207 215 q 98 178 136 176 q 35 208 60 179 q 13 260 15 231 q 32 356 11 290 q 92 509 53 421 q 207 758 131 597 z "},"N":{"ha":1158,"x_min":19,"x_max":1144,"o":"m 756 911 l 872 1111 l 1144 1111 l 1067 981 q 683 242 831 582 q 655 178 665 201 q 633 136 644 156 q 613 108 621 117 q 592 95 604 100 q 569 91 581 90 q 539 94 557 92 q 458 117 461 111 q 399 231 436 142 q 361 344 361 319 q 333 400 361 404 q 244 286 294 394 q 133 151 192 179 q 28 181 75 122 q 21 265 6 203 q 108 497 36 328 q 196 742 169 646 q 222 917 222 839 q 257 1067 222 1035 q 383 1067 292 1100 q 447 1019 424 1053 q 484 918 469 985 q 514 717 499 851 q 557 561 531 561 q 608 633 576 561 q 756 911 639 700 z "},"O":{"ha":833,"x_min":14,"x_max":819,"o":"m 172 939 q 213 992 201 978 q 254 1016 225 1007 q 310 1022 283 1025 q 411 1011 338 1019 q 713 919 607 990 q 819 736 819 847 q 735 531 819 665 q 539 281 650 396 q 358 150 428 167 q 210 155 285 131 q 81 242 136 179 q 26 329 39 285 q 14 472 14 374 q 172 939 14 732 m 597 758 q 568 798 597 790 q 439 800 539 806 q 328 788 360 796 q 281 764 297 781 q 244 703 264 747 q 208 477 211 621 q 239 333 206 333 q 367 417 281 333 q 526 606 454 501 q 597 758 597 710 z "},"P":{"ha":867,"x_min":15,"x_max":851,"o":"m 218 1058 q 315 1101 256 1090 q 510 1111 374 1111 q 708 1101 656 1111 q 801 1053 761 1090 q 851 956 843 1014 q 837 840 858 899 q 771 722 815 781 q 669 619 726 664 q 543 551 613 575 q 407 533 474 526 l 321 542 l 265 306 q 235 196 246 232 q 215 128 225 160 q 192 86 204 97 q 167 69 181 75 q 132 61 154 64 q 74 63 97 57 q 35 87 50 68 q 16 137 21 106 q 16 219 11 168 q 33 334 21 269 q 68 489 46 399 q 122 734 99 613 q 149 900 146 856 q 218 1058 157 1010 m 610 947 q 574 974 610 971 q 495 958 539 976 q 432 911 451 940 q 394 835 404 874 q 392 774 383 797 q 426 750 400 750 q 533 832 457 750 q 610 947 610 914 z "},"Q":{"ha":826,"x_min":33,"x_max":814,"o":"m 268 981 q 401 1085 354 1060 q 510 1111 449 1111 q 669 1067 608 1111 q 776 919 729 1024 q 813 805 813 839 q 779 683 813 771 q 723 560 761 633 q 649 436 685 488 l 565 308 l 621 192 q 663 97 646 143 q 679 36 679 51 q 622 -1 679 -7 q 489 69 551 6 q 474 86 481 78 q 401 151 429 136 q 332 156 372 165 q 188 172 260 138 q 68 283 117 206 q 34 620 -21 429 q 268 981 89 811 m 596 858 q 535 917 596 931 q 360 778 460 900 q 307 708 332 746 q 233 553 232 601 q 276 556 235 519 q 326 577 301 576 q 385 561 350 578 q 423 548 410 550 q 453 558 436 546 q 483 592 469 569 q 524 667 497 615 q 575 778 554 722 q 596 858 596 833 m 290 383 q 263 444 290 400 q 238 461 242 476 q 235 425 235 451 q 244 380 235 399 q 263 361 253 361 q 290 383 290 361 z "},"R":{"ha":789,"x_min":14,"x_max":769,"o":"m 375 1058 q 616 1069 535 1092 q 747 950 697 1046 q 763 881 768 911 q 719 789 758 850 q 660 708 697 750 q 594 647 622 667 l 528 606 l 625 494 q 769 211 803 300 q 751 181 761 192 q 726 171 742 171 q 692 181 711 171 q 644 213 672 190 q 581 268 615 236 q 500 347 547 300 q 446 403 465 383 q 403 444 426 424 q 367 475 379 465 q 340 490 356 485 q 317 495 324 496 q 301 483 311 494 q 286 460 290 472 q 274 419 282 447 q 260 368 265 392 q 247 300 256 344 q 181 96 215 143 q 89 81 147 49 q 14 201 18 118 q 69 483 10 283 q 224 905 150 765 q 375 1058 297 1044 z "},"S":{"ha":731,"x_min":14,"x_max":710,"o":"m 324 1028 q 377 1095 350 1079 q 465 1111 404 1111 q 605 1080 540 1111 q 699 1000 669 1049 q 710 903 728 951 q 643 863 694 868 q 574 889 592 857 q 529 917 560 917 q 506 865 510 917 q 513 723 501 813 q 549 528 524 633 q 576 362 574 410 q 557 272 578 314 q 398 144 496 158 q 140 211 300 129 q 15 314 4 281 q 179 339 25 347 q 243 335 218 336 q 291 338 268 335 q 326 347 314 342 q 346 367 338 353 q 356 397 354 381 q 354 441 357 413 q 344 500 351 469 q 326 578 338 531 q 284 844 285 736 q 324 1028 283 951 z "},"T":{"ha":764,"x_min":13,"x_max":751,"o":"m 272 1053 q 392 1107 317 1101 q 483 1069 467 1113 q 517 1040 489 1051 q 581 1028 544 1028 q 694 991 639 1028 q 750 917 750 954 q 690 860 750 888 q 564 833 629 833 q 501 826 533 833 q 453 811 468 819 q 368 592 432 796 q 267 217 304 389 q 238 156 256 172 q 181 139 219 139 q 101 165 128 139 q 70 251 74 190 q 86 408 67 313 q 150 647 106 503 q 176 763 179 744 q 122 794 172 782 q 38 843 67 808 q 13 912 10 878 q 51 973 17 946 q 142 1000 85 1000 q 213 1016 175 1000 q 272 1053 251 1032 z "},"U":{"ha":739,"x_min":14,"x_max":726,"o":"m 147 1017 q 195 1068 181 1057 q 231 1080 210 1079 q 303 1067 251 1081 q 325 908 406 1038 q 251 680 286 851 q 233 464 217 508 q 400 561 285 335 q 417 594 408 576 q 477 741 451 667 q 503 844 503 815 q 515 899 503 882 q 553 917 526 917 q 667 868 610 917 q 725 772 725 819 q 667 599 725 725 q 539 358 610 472 q 433 228 468 243 q 222 243 340 183 q 39 425 104 303 q 14 528 13 479 q 47 725 15 576 q 96 900 65 814 q 147 1017 126 986 z "},"V":{"ha":825,"x_min":15,"x_max":801,"o":"m 496 994 q 788 1086 657 1168 q 801 1030 819 1065 q 642 797 783 994 q 624 772 629 781 q 365 392 475 565 q 264 253 299 285 q 179 222 229 222 q 62 275 100 222 q 15 459 24 328 q 32 814 7 590 q 43 916 36 878 q 60 981 50 954 q 90 1017 71 1008 q 132 1026 108 1026 q 193 1017 156 1026 q 240 995 226 1008 q 258 953 253 982 q 263 853 263 924 l 265 708 l 326 792 q 496 994 381 869 z "},"W":{"ha":1051,"x_min":14,"x_max":1038,"o":"m 97 994 q 194 1054 131 1071 q 285 968 251 1040 q 303 842 311 910 l 292 736 l 333 833 q 415 984 388 956 q 503 1008 442 1013 q 583 983 560 1004 q 615 896 606 961 q 611 708 624 831 l 597 486 l 722 736 q 821 915 774 839 q 883 994 868 990 q 929 982 899 997 q 986 944 960 967 q 1037 881 1032 904 q 1017 783 1042 857 q 870 459 968 650 q 733 233 772 268 q 598 190 686 189 q 442 236 510 190 q 381 265 394 268 q 350 214 367 261 q 275 130 325 147 q 158 144 225 113 q 51 251 89 178 q 14 425 14 324 q 43 733 14 532 q 97 994 72 935 z "},"X":{"ha":865,"x_min":18,"x_max":838,"o":"m 203 1014 q 208 1021 206 1017 q 248 1053 235 1051 q 317 1029 261 1054 q 325 1025 322 1026 q 383 976 364 1008 q 411 886 403 944 l 428 783 l 561 919 q 836 1022 754 1121 q 834 919 865 985 q 692 725 803 854 q 594 608 640 668 q 533 522 547 547 q 538 367 504 469 q 642 189 571 264 q 692 119 686 140 q 675 69 699 97 q 635 40 661 53 q 586 28 610 28 q 468 94 544 28 q 347 236 392 161 q 328 266 335 258 q 309 270 322 274 q 282 251 296 267 q 236 200 268 236 q 160 127 185 138 q 83 136 136 117 q 19 185 31 156 q 31 263 7 214 q 122 397 54 313 q 208 526 188 481 q 219 614 228 572 q 203 1014 151 954 z "},"Y":{"ha":604,"x_min":14,"x_max":590,"o":"m 36 1086 q 60 1103 43 1096 q 97 1111 78 1111 q 200 1065 168 1111 q 242 897 232 1018 l 256 736 l 322 856 q 558 919 436 1054 q 590 865 588 888 q 510 646 593 824 q 389 389 482 585 q 206 -6 218 31 q 173 -42 197 -28 q 119 -56 149 -56 q 24 64 28 -56 q 106 383 21 183 q 131 522 163 514 q 47 647 81 539 q 14 886 13 754 q 23 1015 17 956 q 36 1086 29 1075 z "},"Z":{"ha":915,"x_min":14,"x_max":901,"o":"m 306 1058 q 610 1067 429 1076 q 844 1031 792 1058 q 901 928 904 997 q 833 781 899 858 q 782 701 793 735 q 781 628 771 667 q 751 537 793 574 q 633 500 710 500 q 573 476 611 500 q 500 417 535 451 q 449 336 432 346 q 467 333 454 333 q 567 367 519 333 q 618 385 597 386 q 664 364 639 385 q 681 213 751 292 q 418 96 607 128 q 258 83 340 83 q 88 126 161 83 q 14 225 14 168 q 56 288 14 236 q 153 400 97 340 q 275 594 292 547 q 294 682 258 639 q 375 717 329 725 q 478 758 414 711 q 542 842 542 806 q 531 853 542 849 q 499 856 519 857 q 456 850 479 856 q 275 875 364 835 q 199 919 217 899 q 186 978 181 940 q 215 1031 190 1015 q 306 1058 239 1047 z "},"[":{"ha":625,"x_min":14,"x_max":611,"o":"m 278 861 q 394 906 332 915 q 492 892 454 892 q 571 841 531 890 q 611 747 611 792 q 594 703 611 713 q 522 700 576 693 q 457 699 485 704 q 428 681 429 693 q 411 611 428 656 q 322 341 394 574 q 250 97 250 108 q 257 94 250 94 q 275 97 264 94 q 300 103 286 99 q 384 72 346 114 q 406 -14 422 29 q 356 -47 396 -40 q 203 -50 317 -54 l 14 -42 l 17 58 q 124 488 18 164 q 278 861 229 813 z "},"\\":{"ha":389,"x_min":14,"x_max":375,"o":"m 64 953 q 164 955 131 972 q 214 875 197 938 q 322 433 269 658 q 375 186 375 207 q 318 96 374 99 q 201 176 261 93 q 156 258 175 213 q 62 567 110 364 q 14 858 14 771 q 64 953 14 940 z "},"]":{"ha":588,"x_min":21,"x_max":572,"o":"m 260 850 q 472 849 392 875 q 571 747 553 822 q 571 649 578 722 q 549 494 564 575 q 507 194 507 297 q 423 8 507 72 q 176 -56 339 -56 q 47 -21 96 -56 q 21 53 -3 14 q 60 87 28 65 q 129 125 92 108 q 173 147 158 139 q 203 174 188 154 q 225 212 218 194 q 242 274 232 229 q 257 363 251 319 q 274 494 263 407 q 281 551 279 531 q 283 590 283 571 q 281 616 283 608 q 273 630 279 624 q 259 638 267 636 q 238 639 251 639 q 136 692 189 639 q 96 783 83 746 q 151 818 103 799 q 260 850 199 838 z "},"a":{"ha":929,"x_min":17,"x_max":910,"o":"m 264 822 q 451 852 369 868 q 619 753 532 836 q 711 669 636 736 q 743 619 738 649 q 736 531 749 589 q 720 446 725 476 q 715 388 715 415 q 717 350 714 361 q 734 330 721 339 q 763 319 747 321 q 808 317 779 318 q 909 281 889 317 q 883 183 929 246 q 739 133 843 129 q 572 194 635 136 l 506 256 l 386 197 q 217 156 290 151 q 81 214 143 160 q 17 351 26 261 q 35 532 7 440 q 124 706 63 624 q 264 822 185 788 m 506 664 q 469 706 490 689 q 431 722 447 722 q 304 633 381 722 q 214 467 228 543 q 233 354 190 354 q 392 467 275 354 q 506 591 486 557 q 506 664 525 625 z "},"b":{"ha":572,"x_min":14,"x_max":556,"o":"m 108 789 l 211 1111 l 306 1111 q 384 1097 375 1111 q 381 1003 393 1083 q 378 910 371 932 q 422 875 385 888 q 512 813 478 857 q 555 712 546 768 q 553 591 564 656 q 513 470 542 526 q 433 369 483 414 q 322 308 383 325 q 224 296 264 292 q 122 328 185 300 q 51 374 83 346 q 14 422 18 403 q 38 551 10 442 q 108 789 67 661 m 339 614 q 355 671 351 650 q 353 694 358 692 q 285 603 340 694 q 231 489 231 511 q 268 497 231 457 q 339 614 317 547 z "},"c":{"ha":503,"x_min":14,"x_max":490,"o":"m 225 747 q 379 802 329 799 q 467 761 429 806 q 489 717 492 729 q 453 683 486 704 q 273 562 319 606 q 219 467 226 518 q 233 401 214 422 q 322 350 251 379 q 410 296 386 326 q 410 244 433 265 q 325 222 388 222 q 98 302 186 222 q 14 506 10 382 q 64 638 17 583 q 225 747 111 693 z "},"d":{"ha":706,"x_min":15,"x_max":693,"o":"m 501 1050 q 575 1108 550 1104 q 651 1072 600 1111 q 674 1056 668 1061 q 686 1038 681 1050 q 692 1019 692 1026 q 687 988 692 1011 q 676 947 682 965 q 654 883 669 928 q 565 675 607 746 q 529 531 535 625 q 549 400 524 438 q 621 350 568 371 q 654 308 671 333 q 574 288 635 282 q 546 292 560 289 q 486 317 517 300 q 440 350 456 333 q 398 367 422 375 q 313 306 374 358 q 208 238 260 258 q 118 227 157 218 q 51 267 79 236 q 17 350 22 297 q 24 472 11 403 q 110 669 51 597 q 271 772 169 742 q 368 821 339 796 q 415 900 397 846 q 453 981 428 938 q 501 1050 479 1025 m 288 524 q 310 563 288 524 q 332 639 332 601 q 301 665 332 676 q 238 606 269 654 q 176 458 194 536 q 169 392 160 393 q 204 414 176 390 q 288 524 244 447 z "},"e":{"ha":651,"x_min":14,"x_max":639,"o":"m 204 717 q 371 826 311 814 q 510 775 431 838 q 576 647 590 713 q 446 469 563 582 q 354 372 390 415 q 324 322 318 328 q 490 322 343 307 q 611 330 585 335 q 638 297 638 325 q 552 209 638 251 q 374 167 467 167 q 57 347 163 167 q 15 444 18 417 q 38 525 11 472 q 103 612 54 556 q 204 717 153 668 m 388 686 q 381 711 388 700 q 365 722 374 722 q 306 682 335 722 q 276 600 276 642 q 285 561 276 563 q 332 597 293 560 q 372 644 356 618 q 388 686 388 669 z "},"f":{"ha":943,"x_min":14,"x_max":917,"o":"m 503 1050 q 569 1101 531 1090 q 725 1111 607 1111 q 917 1072 885 1111 q 886 919 949 1033 q 827 840 857 864 q 753 811 797 815 q 738 810 747 811 q 688 814 693 803 q 714 936 682 829 q 725 972 721 960 q 730 1011 733 994 q 714 1028 726 1028 q 604 860 688 1028 q 500 597 521 692 q 467 467 469 475 q 476 426 461 436 q 550 417 492 417 q 653 401 633 417 q 661 331 674 385 q 628 290 653 301 q 553 278 604 278 q 442 238 474 278 q 389 64 411 197 q 360 -38 376 -21 q 272 -56 343 -56 q 190 -43 200 -56 q 192 44 179 -31 q 228 183 213 142 q 223 213 236 204 q 172 222 210 222 q 67 260 121 222 q 14 333 14 297 q 52 363 14 344 q 144 394 90 381 q 261 446 239 422 q 306 569 283 469 q 390 824 331 679 q 503 1050 450 969 z "},"g":{"ha":625,"x_min":14,"x_max":600,"o":"m 219 767 q 363 879 314 863 q 494 858 411 896 q 596 753 567 825 q 600 600 625 682 q 542 331 575 528 q 472 44 518 161 l 431 -56 l 222 -56 q 47 -47 81 -56 q 14 0 14 -37 q 21 45 14 35 q 47 49 28 56 q 111 11 67 42 q 219 -2 178 -33 q 303 158 260 29 q 342 314 347 290 q 264 325 336 338 q 184 324 218 314 q 108 369 150 335 q 50 440 56 415 q 69 539 44 464 q 128 650 85 583 q 219 767 172 717 m 419 675 q 450 719 460 713 q 422 722 446 722 q 320 638 385 722 q 278 533 256 554 q 302 535 286 525 q 333 569 318 546 q 419 675 371 621 z "},"h":{"ha":688,"x_min":18,"x_max":672,"o":"m 283 1050 q 397 1111 315 1111 q 476 1072 474 1111 q 411 861 478 1032 q 342 667 342 688 q 431 661 342 651 q 558 616 525 676 q 592 372 592 556 q 633 128 592 169 q 672 55 681 82 q 600 28 663 28 q 469 74 521 31 q 383 211 417 118 l 347 314 l 275 200 q 199 115 240 146 q 122 81 157 83 q 58 97 86 79 q 19 160 31 115 q 19 264 8 204 q 142 668 36 353 q 283 1050 247 983 z "},"i":{"ha":381,"x_min":14,"x_max":356,"o":"m 208 989 q 244 1053 208 1050 q 333 1000 281 1056 q 356 914 383 942 q 263 903 318 876 q 208 989 208 931 m 139 722 q 275 708 178 783 q 307 668 303 688 q 301 608 311 649 q 250 453 290 568 q 185 291 219 367 q 136 197 151 215 q 53 179 92 151 q 14 286 14 207 q 60 508 14 349 q 139 722 106 668 z "},"j":{"ha":658,"x_min":14,"x_max":639,"o":"m 478 1094 q 549 1109 501 1117 q 625 1069 597 1101 q 639 1002 656 1032 q 569 972 622 972 q 492 1021 528 972 q 478 1094 456 1069 m 414 811 q 469 830 447 835 q 528 786 490 825 q 563 675 560 754 q 546 499 567 596 q 490 303 525 401 q 406 126 456 206 q 308 14 357 46 q 105 -26 196 -60 q 14 125 14 8 q 50 232 14 243 q 92 192 68 226 q 132 151 118 153 q 181 181 146 149 q 290 369 235 231 q 361 639 344 507 q 385 751 369 700 q 414 811 401 803 z "},"k":{"ha":679,"x_min":14,"x_max":665,"o":"m 311 1050 q 360 1081 338 1082 q 431 1044 382 1079 q 463 1012 456 1025 q 464 974 469 999 q 436 892 458 950 q 389 767 389 783 q 402 765 390 764 q 437 772 414 767 q 486 786 460 778 q 574 801 547 806 q 633 767 601 797 q 665 720 667 733 q 625 678 664 707 q 508 594 588 654 q 444 463 435 540 q 542 314 453 385 q 629 181 663 217 q 578 167 615 167 q 425 222 519 167 q 314 322 331 278 q 302 341 308 336 q 285 341 296 346 q 259 322 274 336 q 219 281 244 308 q 147 211 172 228 q 101 201 122 194 q 47 244 79 208 q 14 310 13 279 q 53 447 15 342 q 195 808 106 599 q 311 1050 285 1017 z "},"l":{"ha":417,"x_min":14,"x_max":400,"o":"m 239 1033 q 386 1042 321 1124 q 400 972 410 1015 q 336 819 390 929 q 219 508 246 643 q 203 385 197 413 q 264 317 210 358 q 310 265 293 292 q 319 225 326 238 q 228 199 294 188 q 97 264 161 210 q 28 342 43 306 q 14 464 14 378 q 93 762 17 567 q 239 1033 169 957 z "},"m":{"ha":993,"x_min":17,"x_max":979,"o":"m 79 575 q 148 759 124 713 q 204 806 172 806 q 253 788 225 806 q 299 747 282 771 q 331 708 319 715 q 358 705 343 700 q 410 733 374 710 q 621 736 535 814 q 676 710 647 711 q 768 728 706 708 q 863 745 835 749 q 926 708 890 742 q 979 574 974 665 q 949 395 985 482 q 854 278 914 308 q 762 274 783 239 q 765 422 740 310 q 771 546 792 546 q 622 390 746 546 q 599 361 611 376 q 540 310 561 315 q 468 328 519 304 q 410 403 392 361 q 426 444 414 414 q 443 486 439 475 q 447 515 450 503 q 435 528 444 528 q 304 431 401 528 q 201 294 207 333 q 141 210 189 235 q 54 219 93 186 q 17 278 24 246 q 24 371 11 310 q 79 575 36 432 z "},"n":{"ha":589,"x_min":22,"x_max":575,"o":"m 131 731 q 228 833 171 833 q 306 783 278 833 q 308 692 335 733 q 287 629 276 639 q 350 653 297 619 q 435 678 393 682 q 509 649 476 674 q 560 576 542 624 q 575 472 579 529 q 567 283 574 457 q 552 184 563 201 q 500 172 542 167 q 434 216 456 179 q 375 386 413 253 q 317 379 365 418 q 289 353 306 368 q 147 281 222 290 q 31 322 72 272 q 23 438 3 354 q 131 731 43 521 z "},"o":{"ha":575,"x_min":17,"x_max":563,"o":"m 183 725 q 306 741 240 751 q 429 702 372 731 q 524 625 486 674 q 561 525 561 576 q 502 356 561 464 q 389 211 443 249 q 276 168 338 175 q 161 180 214 161 q 68 243 108 199 q 17 347 28 288 q 30 487 7 404 q 97 638 53 569 q 183 725 140 706 m 344 465 q 356 486 344 465 q 367 528 367 507 q 361 568 367 549 q 347 592 356 588 q 263 581 326 604 q 197 536 200 557 q 186 461 197 522 q 197 356 176 413 q 221 321 211 321 q 288 383 235 319 q 292 389 289 386 q 344 465 322 424 z "},"p":{"ha":707,"x_min":21,"x_max":693,"o":"m 274 758 q 401 775 329 781 q 538 749 474 769 q 646 694 601 729 q 693 619 690 658 q 622 388 701 499 q 396 208 542 276 q 271 133 300 163 q 229 42 242 104 q 198 -41 217 -26 q 107 -56 179 -56 q 28 -50 39 -56 q 22 40 6 -37 q 85 275 31 78 q 118 442 107 360 q 124 556 129 524 q 156 672 113 614 q 274 758 200 731 m 443 533 q 455 572 457 561 q 432 583 453 583 q 360 547 392 583 q 329 464 329 510 q 337 427 329 431 q 374 444 344 424 q 443 533 424 494 z "},"q":{"ha":722,"x_min":14,"x_max":708,"o":"m 528 836 q 588 860 546 865 q 664 817 629 854 q 686 795 675 807 q 703 776 697 783 q 708 767 708 768 q 698 733 708 765 q 665 635 688 701 q 625 514 643 569 q 579 366 593 418 q 566 279 565 314 q 583 234 567 244 q 633 222 599 224 q 607 151 660 222 q 510 58 549 74 q 500 56 504 56 q 472 40 486 56 q 450 0 457 24 q 392 -49 442 -33 q 290 -56 342 -65 q 225 -14 239 -46 q 208 14 219 3 q 189 22 197 25 q 99 42 156 14 q 31 100 43 69 q 40 174 10 154 q 169 194 71 194 q 292 233 292 194 q 228 258 292 271 q 88 308 161 246 q 14 442 14 371 q 74 594 14 504 q 222 756 135 685 q 406 814 301 818 q 528 836 514 808 m 419 664 q 367 690 396 701 q 281 608 338 678 q 208 468 207 519 q 231 444 208 444 q 348 542 264 444 q 419 664 432 640 z "},"r":{"ha":679,"x_min":14,"x_max":664,"o":"m 389 761 q 517 801 492 799 q 608 781 543 803 q 663 699 675 754 q 575 631 651 644 q 371 522 482 613 q 244 361 260 431 q 83 233 215 200 q 26 270 38 246 q 14 383 14 294 q 38 621 17 493 q 81 769 60 749 q 172 750 96 785 q 264 717 256 714 q 389 761 297 728 z "},"s":{"ha":574,"x_min":15,"x_max":561,"o":"m 315 781 q 422 819 361 826 q 529 756 483 813 q 560 685 564 710 q 507 619 556 661 q 464 553 476 593 q 451 439 451 513 q 419 228 451 289 q 296 150 386 167 q 170 154 242 139 q 52 200 99 169 q 15 258 6 231 q 51 285 19 271 q 121 306 82 300 q 199 331 181 314 q 224 403 218 349 q 258 661 239 579 q 315 781 278 743 z "},"t":{"ha":604,"x_min":29,"x_max":592,"o":"m 357 953 q 415 996 396 994 q 488 958 433 997 q 527 908 524 929 q 508 825 531 886 q 489 744 485 764 q 532 692 493 724 l 590 647 l 515 589 q 447 546 485 564 q 390 528 410 528 q 338 494 356 528 q 330 418 319 461 q 374 353 340 375 q 415 308 411 328 q 396 239 419 289 q 303 168 364 165 q 163 250 242 171 q 96 339 107 307 q 96 444 85 371 q 101 525 104 494 q 85 556 99 556 q 58 572 75 556 q 29 614 42 589 q 29 710 -4 672 q 135 733 63 747 q 206 738 183 724 q 263 811 229 753 q 357 953 306 889 z "},"u":{"ha":729,"x_min":79,"x_max":715,"o":"m 111 692 q 154 768 140 743 q 186 817 168 793 q 213 847 204 840 q 239 855 222 853 q 269 851 256 857 q 306 833 282 846 q 355 758 356 804 q 300 608 354 713 q 256 481 246 494 q 292 508 264 474 q 351 591 321 542 q 394 675 382 640 q 452 720 410 715 q 556 692 494 725 q 600 640 592 672 q 603 519 608 608 q 601 424 596 457 q 617 381 606 390 q 658 367 628 371 q 715 340 711 358 q 681 272 719 322 q 588 224 650 231 q 467 250 526 218 q 407 264 438 267 q 333 236 376 261 q 198 197 253 194 q 81 250 143 200 q 111 692 -69 365 z "},"v":{"ha":599,"x_min":17,"x_max":585,"o":"m 67 781 q 124 788 93 799 q 184 753 156 778 q 234 686 213 728 q 261 600 256 644 l 269 522 l 361 653 q 447 752 414 726 q 514 772 479 778 q 564 747 549 768 q 583 678 579 725 q 535 519 589 624 q 405 323 482 414 q 272 214 328 232 q 128 226 193 188 q 31 356 63 264 q 18 598 4 439 q 67 781 32 757 z "},"w":{"ha":915,"x_min":17,"x_max":901,"o":"m 96 661 q 158 776 132 746 q 221 806 185 806 q 316 763 283 806 q 332 661 349 719 q 324 618 321 619 q 332 625 325 617 q 346 647 336 632 q 438 693 371 688 q 529 661 506 699 q 568 544 546 635 l 585 458 l 668 586 q 776 764 771 754 q 853 794 811 822 q 901 656 899 756 q 825 410 901 560 q 682 222 749 260 q 557 196 626 193 q 440 233 488 199 q 382 251 404 261 q 301 178 360 242 q 174 89 224 96 q 65 142 125 82 q 17 219 25 181 q 21 358 10 257 q 49 513 26 424 q 96 661 71 601 z "},"x":{"ha":613,"x_min":15,"x_max":594,"o":"m 104 814 q 176 817 119 831 q 263 775 233 803 q 292 767 275 765 q 324 781 308 768 q 413 791 357 808 q 485 731 468 774 q 485 677 493 714 q 460 603 478 640 q 436 553 443 568 q 426 519 429 539 q 424 493 422 500 q 440 472 426 486 q 469 448 454 457 q 518 419 485 439 q 593 363 581 382 q 585 319 606 344 q 489 279 551 278 q 365 322 426 281 q 301 350 322 354 q 226 294 281 346 q 114 226 161 233 q 29 264 67 218 q 16 322 8 290 q 68 431 24 353 q 122 540 113 504 q 113 608 131 576 q 86 724 89 654 q 104 814 83 793 z "},"y":{"ha":497,"x_min":14,"x_max":485,"o":"m 51 739 q 251 767 56 771 q 340 764 306 765 q 405 756 374 763 q 451 742 436 749 q 476 717 467 735 q 483 681 485 700 q 473 629 482 663 q 449 561 464 596 q 410 472 435 526 q 276 167 358 361 q 187 -4 228 47 q 96 -56 146 -56 q 33 -35 53 -56 q 15 35 14 -14 q 36 161 15 85 q 101 353 57 238 q 138 456 131 426 q 140 502 146 485 q 107 547 133 519 q 51 739 39 619 z "},"z":{"ha":636,"x_min":14,"x_max":617,"o":"m 89 731 q 318 749 110 753 q 572 722 526 746 q 617 628 636 686 q 483 456 597 569 l 342 311 l 428 292 q 514 224 513 274 q 433 139 515 174 q 244 107 338 104 q 83 150 151 110 q 14 250 14 190 q 167 425 14 304 l 319 542 l 228 558 q 103 594 140 572 q 71 660 76 611 q 89 731 65 708 z "},"{":{"ha":674,"x_min":14,"x_max":660,"o":"m 376 972 q 492 999 425 999 q 610 976 560 1000 q 660 914 660 951 q 635 891 660 906 q 579 867 611 876 q 449 757 494 838 q 382 522 403 676 q 358 376 374 451 q 329 269 342 301 q 299 81 289 168 q 363 -28 308 -6 q 365 -50 404 -44 q 265 -53 339 -53 q 186 -53 213 -54 q 133 -44 160 -53 q 95 -24 106 -35 q 73 16 85 -14 q 57 76 61 46 q 46 167 53 107 q 15 375 25 318 q 26 422 11 407 q 90 444 42 436 q 128 454 115 449 q 153 468 142 460 q 171 497 165 476 q 181 542 176 518 q 190 617 185 567 q 254 832 203 733 q 376 972 306 931 z "},"|":{"ha":271,"x_min":15,"x_max":258,"o":"m 47 961 q 95 997 76 996 q 158 964 114 997 q 199 858 185 943 q 225 542 213 772 q 253 50 247 97 q 257 6 256 21 q 256 -23 258 -8 q 249 -42 253 -37 q 233 -51 246 -46 q 208 -56 221 -56 q 169 -56 196 -56 q 88 -44 110 -56 q 61 6 67 -32 q 22 353 35 135 q 15 752 8 572 q 47 961 22 932 z "},"}":{"ha":564,"x_min":14,"x_max":550,"o":"m 172 925 q 388 892 293 942 q 483 761 483 842 q 411 567 483 696 q 365 449 350 463 q 381 444 369 444 q 486 392 424 444 l 550 339 l 481 247 q 361 50 415 160 q 342 6 349 21 q 322 -23 335 -8 q 301 -42 310 -37 q 270 -51 293 -46 q 227 -56 247 -56 q 164 -56 207 -56 l 14 -56 l 83 64 q 134 181 131 151 q 106 278 138 211 q 77 380 72 344 q 144 544 82 415 l 231 717 l 164 761 q 95 862 93 808 q 172 925 97 915 z "},"~":{"ha":888,"x_min":14,"x_max":861,"o":"m 133 494 q 288 556 186 550 q 431 511 389 563 q 543 434 489 442 q 697 472 597 426 q 794 506 749 494 q 850 511 839 518 q 860 422 885 478 q 760 308 836 367 q 608 233 685 249 q 397 275 513 217 l 281 333 l 217 275 q 86 233 156 214 q 35 253 56 239 q 14 281 14 268 q 49 377 14 314 q 133 494 85 440 z "},"¢":{"ha":697,"x_min":15,"x_max":681,"o":"m 469 725 q 541 800 500 788 q 647 778 582 813 q 680 699 690 754 q 581 419 669 644 q 532 277 542 322 q 539 219 522 232 q 557 186 553 211 q 553 131 561 161 q 476 31 539 78 q 339 -37 413 -15 q 197 -53 265 -60 q 106 -6 128 -47 q 86 28 97 7 q 60 77 75 49 q 39 119 46 106 q 16 191 21 151 q 19 264 11 231 q 151 457 38 336 q 344 611 264 578 q 415 660 378 626 q 469 725 453 694 m 267 264 q 274 298 275 288 q 265 302 274 308 q 244 275 256 296 q 239 233 225 247 q 260 249 246 222 q 267 264 264 256 z "},"£":{"ha":626,"x_min":17,"x_max":604,"o":"m 315 917 q 422 986 358 963 q 537 1002 485 1010 q 604 956 589 994 q 601 883 622 908 q 529 867 581 858 q 399 747 399 883 q 414 677 399 701 q 468 639 429 653 q 517 613 497 629 q 538 583 538 596 q 517 553 538 571 q 468 522 497 535 q 411 476 424 504 q 399 369 399 447 q 411 266 399 293 q 468 222 424 239 q 517 192 497 211 q 538 153 538 172 q 538 147 538 150 q 512 109 538 115 q 329 99 486 103 q 296 97 307 97 q 126 101 174 93 q 51 139 79 110 q 17 244 1 194 q 107 306 33 293 q 199 369 171 317 q 189 436 222 417 q 154 444 175 444 q 106 457 132 444 q 65 486 81 469 q 61 566 32 526 q 157 617 90 606 q 208 644 193 621 q 226 728 222 668 q 315 917 235 832 z "},"§":{"ha":633,"x_min":14,"x_max":621,"o":"m 294 858 q 449 942 371 933 q 583 889 528 951 q 620 833 619 850 q 589 786 621 817 q 545 756 563 757 q 500 778 528 754 q 456 795 472 800 q 403 750 439 790 q 347 664 347 685 q 381 621 347 656 q 458 553 415 586 q 547 463 525 499 q 569 375 569 428 q 557 301 569 338 q 528 250 544 265 q 499 199 511 235 q 486 125 486 163 q 416 -12 486 32 q 197 -56 346 -56 q 47 -38 90 -56 q 36 8 4 -21 q 167 69 68 36 q 246 119 229 90 q 237 193 263 149 q 139 308 211 238 q 14 511 17 426 q 128 656 11 596 q 185 695 161 672 q 208 733 208 718 q 234 786 208 750 q 294 858 260 822 z "},"«":{"ha":710,"x_min":14,"x_max":692,"o":"m 208 600 q 289 668 257 653 q 364 675 321 683 q 419 655 403 668 q 433 615 436 642 q 408 549 431 588 q 339 444 386 510 q 322 200 178 221 q 374 168 357 194 q 381 113 390 142 q 339 72 371 85 q 161 63 246 36 q 36 167 76 90 q 15 251 11 215 q 61 378 18 288 q 133 501 90 436 q 208 600 175 565 m 478 550 q 660 643 592 650 q 692 576 708 638 q 628 469 679 532 l 536 358 l 603 308 q 653 214 665 261 q 567 167 640 167 q 447 191 490 167 q 372 275 404 215 q 360 406 336 346 q 478 550 383 467 z "},"»":{"ha":688,"x_min":15,"x_max":672,"o":"m 363 675 q 442 690 388 703 q 568 631 497 678 q 672 492 658 569 q 618 344 685 415 q 472 253 568 290 q 343 236 376 215 q 297 231 331 243 q 232 194 264 219 q 153 155 196 169 q 85 144 111 140 q 26 180 46 150 q 16 248 7 210 q 60 311 25 286 q 133 397 126 358 q 93 500 139 436 q 60 643 24 597 q 169 653 90 685 q 279 578 225 631 q 344 503 317 540 q 371 453 371 467 q 394 418 371 417 q 438 458 422 418 q 433 496 443 476 q 399 528 422 515 q 345 599 357 549 q 363 675 333 649 z "},"¿":{"ha":553,"x_min":14,"x_max":540,"o":"m 292 736 q 331 773 292 763 q 421 772 371 783 q 497 733 471 761 q 540 670 538 693 q 508 619 542 647 q 385 620 479 596 q 292 675 292 644 l 292 736 m 206 342 q 356 439 285 426 q 467 386 428 451 q 463 318 483 358 q 367 192 443 278 q 251 28 247 56 q 306 56 253 13 q 415 63 344 89 q 486 -14 486 36 q 440 -47 486 -39 q 250 -56 393 -56 l 14 -56 l 14 22 q 56 159 14 88 q 206 342 99 231 z "},"À":{"ha":742,"x_min":24,"x_max":726,"o":"m 513 1092 q 582 1096 540 1121 q 696 983 624 1071 q 726 882 738 931 q 660 833 714 833 q 589 865 626 833 q 528 940 551 897 q 497 1026 506 983 q 513 1092 489 1069 m 418 786 q 472 826 429 814 q 561 829 514 839 q 632 792 608 819 q 664 520 657 763 q 649 197 671 278 q 638 148 649 193 q 621 78 626 103 q 573 6 610 26 q 497 2 536 -15 q 438 69 457 19 q 414 118 428 97 q 390 142 400 139 q 310 156 361 142 q 204 97 247 164 q 109 30 165 36 q 24 75 53 24 q 42 207 -1 121 q 243 514 85 293 q 418 786 406 744 z "},"Á":{"ha":850,"x_min":14,"x_max":836,"o":"m 639 1086 q 758 1111 658 1111 q 835 1101 833 1108 q 817 1083 836 1096 q 811 1081 814 1082 q 665 1042 731 1033 q 639 1086 617 1049 m 522 925 q 590 970 539 967 q 694 936 640 974 q 734 849 728 908 q 728 553 740 789 q 689 150 713 258 q 614 33 665 42 q 520 68 554 21 q 486 211 486 115 q 477 313 486 300 q 414 306 468 325 q 286 208 344 278 q 69 111 168 58 q 31 143 47 124 q 14 178 14 163 q 31 218 14 193 q 69 264 47 243 q 109 314 93 285 q 125 364 125 343 q 142 410 125 386 q 183 450 158 435 q 360 665 226 476 q 522 925 494 854 z "},"Â":{"ha":886,"x_min":22,"x_max":867,"o":"m 440 975 q 637 1028 540 1038 q 799 942 733 1019 q 863 829 844 888 q 867 733 882 771 q 807 694 851 694 q 753 701 779 694 q 718 719 728 708 q 693 671 703 735 q 685 539 686 622 q 674 338 681 417 q 657 200 668 258 q 627 112 646 142 q 583 69 608 82 q 518 56 557 56 q 435 111 447 56 q 383 160 425 144 q 297 165 340 175 q 240 122 253 154 q 160 55 225 82 q 51 44 94 28 q 23 141 -3 68 q 176 397 49 214 q 343 653 343 640 q 290 667 343 667 q 244 679 269 667 q 204 708 219 692 q 194 758 183 733 q 263 836 206 782 q 440 975 349 918 z "},"Ä":{"ha":808,"x_min":17,"x_max":796,"o":"m 407 1056 q 397 1102 386 1093 q 476 1111 408 1111 q 575 1075 557 1111 q 535 1019 590 1043 q 529 1017 532 1018 q 453 1003 476 996 q 407 1056 431 1011 m 632 1044 q 706 1076 664 1083 q 779 1019 747 1068 q 794 974 796 990 q 768 944 793 958 q 703 921 724 918 q 643 961 683 924 q 616 1005 618 989 q 632 1044 614 1021 m 376 717 q 472 858 426 800 q 532 917 517 917 q 574 897 544 917 q 629 847 603 876 q 665 805 654 821 q 682 752 676 789 q 685 673 688 715 q 676 536 683 631 q 633 215 663 340 q 571 67 604 90 q 474 67 542 53 q 421 97 435 76 q 407 167 407 118 q 363 249 407 254 q 251 153 321 243 q 99 54 183 61 q 18 96 35 49 q 46 208 3 142 q 101 328 101 294 q 124 378 101 344 q 179 442 146 411 q 269 554 211 474 q 376 717 328 635 z "},"Ç":{"ha":694,"x_min":14,"x_max":681,"o":"m 403 897 q 465 931 429 918 q 525 944 501 944 q 630 897 579 944 q 681 797 681 849 q 664 755 681 763 q 586 758 647 747 q 491 755 525 769 q 394 678 457 740 q 253 492 306 588 q 217 353 200 396 q 339 322 232 311 q 506 278 492 342 q 394 75 519 214 q 303 -6 342 17 q 214 -28 265 -28 q 130 -1 146 -28 q 150 81 114 25 q 94 197 176 119 q 32 277 50 239 q 14 367 14 315 q 128 635 14 479 q 403 897 243 792 z "},"È":{"ha":711,"x_min":17,"x_max":699,"o":"m 364 1075 q 412 1112 364 1104 q 515 1103 460 1119 q 586 1056 569 1088 q 599 974 615 1003 q 525 944 582 944 q 419 989 474 944 q 364 1075 364 1033 m 211 842 q 276 892 238 882 q 439 900 315 901 q 662 891 626 899 q 697 850 697 883 q 624 753 697 810 q 475 681 550 697 q 382 625 401 664 q 407 586 367 594 q 433 583 419 583 q 489 568 463 583 q 529 532 515 553 q 542 488 543 511 q 522 450 542 465 q 386 403 497 425 q 297 369 322 390 q 250 286 271 347 q 240 178 221 197 q 331 200 258 158 q 399 230 379 229 q 442 206 419 231 q 460 104 481 153 q 364 26 440 56 q 197 8 288 -4 q 47 75 90 22 q 17 232 4 128 q 100 514 31 336 q 149 649 129 585 q 169 733 169 713 q 182 784 169 751 q 211 842 194 817 z "},"É":{"ha":725,"x_min":17,"x_max":713,"o":"m 489 1078 q 552 1105 500 1096 q 652 1108 604 1114 q 700 1086 700 1103 q 681 1056 700 1075 q 633 1019 661 1036 q 571 990 592 992 q 519 1011 550 989 q 490 1045 499 1025 q 489 1078 481 1065 m 231 878 q 290 923 264 914 q 350 919 317 932 q 416 907 372 910 q 494 908 460 904 q 575 908 531 914 q 647 889 619 901 l 711 853 l 647 803 q 570 758 619 782 q 475 722 521 735 q 371 657 394 700 q 394 614 351 622 q 419 611 406 611 q 524 589 486 611 q 561 527 561 567 q 506 466 561 488 q 350 444 451 444 q 278 431 300 444 q 244 383 256 418 q 233 276 224 303 q 294 250 243 250 q 444 220 354 250 q 533 169 533 190 q 476 106 533 129 q 319 83 419 83 q 17 214 46 83 q 49 414 3 268 q 153 647 94 560 q 185 715 174 679 q 189 769 196 751 q 231 878 171 814 z "},"Ê":{"ha":774,"x_min":15,"x_max":758,"o":"m 300 1094 q 386 1101 313 1099 q 542 1103 460 1104 q 728 1086 703 1099 q 757 1035 751 1076 q 758 1022 757 1031 q 732 945 767 958 q 622 972 697 932 q 567 987 593 989 q 511 964 542 985 q 484 944 492 950 q 472 931 476 938 q 474 922 467 925 q 492 915 482 918 q 528 906 503 911 q 590 829 610 885 q 436 707 569 764 q 428 703 432 704 q 372 664 399 690 q 339 614 344 638 q 342 566 331 576 q 403 556 353 556 q 466 543 433 556 q 514 514 499 531 q 529 460 536 488 q 499 411 522 433 q 433 375 475 389 q 342 361 390 361 q 251 349 267 361 q 236 278 236 336 q 251 207 236 219 q 333 194 265 194 q 450 150 433 194 q 397 57 471 93 q 222 27 324 21 q 69 83 119 33 q 17 192 24 129 q 39 367 10 256 q 147 694 68 478 q 211 826 183 796 q 311 878 239 857 l 417 911 l 342 942 q 281 988 303 957 q 263 1050 258 1019 q 300 1094 268 1081 z "},"Ë":{"ha":700,"x_min":14,"x_max":675,"o":"m 294 1069 q 301 1102 286 1093 q 361 1111 315 1111 q 456 1083 428 1111 q 450 1022 483 1056 q 367 1013 422 996 q 294 1069 311 1029 m 533 1050 q 537 1097 526 1083 q 578 1111 547 1111 q 668 1069 632 1111 q 675 997 704 1026 q 589 980 639 961 q 533 1050 539 999 m 222 817 q 259 878 240 868 q 328 875 278 888 q 506 842 461 849 q 611 700 715 813 q 578 654 586 675 q 583 625 571 633 q 583 535 633 593 q 432 451 529 474 q 372 444 401 444 q 318 424 339 444 q 281 358 297 404 q 262 303 268 325 q 252 263 256 282 q 251 233 249 243 q 260 215 254 224 q 280 205 267 206 q 310 201 293 204 q 353 203 328 199 q 437 197 414 207 q 467 156 460 188 q 410 52 479 101 q 256 0 342 3 q 164 19 204 0 q 81 83 124 38 q 49 115 60 103 q 28 145 38 126 q 16 176 19 164 q 15 215 13 188 q 22 264 17 243 q 42 331 28 285 q 72 416 57 376 q 114 528 86 456 q 154 638 132 578 q 197 752 176 697 q 222 817 218 807 z "},"Î":{"ha":628,"x_min":14,"x_max":599,"o":"m 161 1078 q 381 1108 222 1108 q 520 1099 486 1110 q 586 1042 554 1088 q 599 925 636 964 q 453 903 561 886 q 353 906 364 919 q 392 819 343 893 q 413 712 421 775 q 333 411 404 649 q 203 5 233 65 q 97 -56 172 -56 q 26 -40 39 -56 q 14 44 14 -25 q 43 217 14 86 q 114 489 72 349 l 217 833 l 142 903 q 161 1078 22 1010 z "},"Ï":{"ha":726,"x_min":15,"x_max":697,"o":"m 282 1097 q 294 1104 282 1101 q 328 1108 307 1107 q 374 1106 349 1108 q 446 1086 425 1101 q 471 1036 467 1071 q 466 985 478 997 q 410 972 454 972 q 323 1012 364 972 q 282 1097 282 1051 m 551 1094 q 628 1108 579 1119 q 696 1058 678 1096 q 640 972 746 972 q 565 1022 601 972 q 551 1094 529 1072 m 257 894 q 475 885 297 907 q 674 842 653 863 q 681 769 701 815 q 615 708 661 722 q 533 596 582 697 q 457 391 483 494 q 454 272 431 288 q 526 250 493 250 q 550 233 540 250 q 560 192 560 217 q 516 126 560 160 q 403 72 472 93 q 265 50 333 50 q 69 129 153 50 q 15 246 1 192 q 101 300 28 293 q 164 318 144 304 q 202 369 183 332 q 251 500 221 407 q 302 672 299 635 q 274 744 306 710 q 229 836 235 788 q 257 894 224 885 z "},"Ñ":{"ha":967,"x_min":21,"x_max":953,"o":"m 328 1092 q 419 1103 340 1099 q 589 1108 497 1108 q 801 1090 785 1111 q 803 1072 807 1083 q 711 984 785 1025 q 544 928 638 943 q 475 914 500 921 q 440 897 450 907 q 435 874 431 886 q 458 844 440 863 q 506 672 485 818 q 523 570 513 613 q 542 528 533 528 q 567 551 550 528 q 597 606 583 574 q 715 787 651 713 q 817 861 779 861 q 867 845 838 861 q 917 806 896 829 q 953 749 953 767 q 917 678 953 731 q 761 350 868 606 q 613 74 672 133 q 475 64 553 14 q 413 133 447 83 q 358 233 379 182 l 306 358 l 250 200 q 191 69 214 100 q 122 33 168 38 q 21 60 39 24 q 61 319 -3 108 q 119 503 82 389 q 212 760 179 678 q 267 876 244 843 q 319 917 290 910 q 365 936 361 928 q 336 969 368 944 q 294 1040 297 1003 q 328 1092 290 1076 z "},"Ó":{"ha":775,"x_min":14,"x_max":742,"o":"m 486 1058 q 503 1103 486 1093 q 575 1106 521 1113 q 669 1067 658 1097 q 611 1006 681 1036 q 486 1058 486 949 m 222 800 q 308 847 258 829 q 394 861 358 864 q 431 836 431 858 q 466 815 431 828 q 547 797 501 803 q 741 678 693 778 q 731 421 789 578 q 519 83 674 264 q 424 1 461 15 q 272 -14 388 -14 q 173 -11 211 -14 q 103 3 135 -8 q 56 30 72 14 q 30 79 40 46 q 17 151 19 113 q 14 253 14 189 q 72 576 14 422 q 222 800 131 729 m 492 678 q 414 708 450 690 q 317 638 374 728 q 222 408 260 547 q 188 193 183 258 q 242 117 192 128 q 358 183 290 108 q 494 397 426 258 q 492 678 610 636 z "},"Ô":{"ha":861,"x_min":22,"x_max":844,"o":"m 315 1069 q 377 1103 324 1094 q 582 1111 431 1111 q 792 1102 753 1111 q 832 1056 832 1093 q 813 1002 832 1035 q 771 947 794 969 q 727 891 729 908 q 757 839 725 874 q 799 778 775 818 q 835 703 822 738 q 844 605 853 646 q 788 469 835 564 q 588 153 693 282 q 407 6 482 25 q 242 10 322 -17 q 107 95 161 36 q 28 242 53 154 q 24 422 3 331 q 116 668 51 550 q 260 856 181 786 q 337 938 322 911 q 332 986 351 964 q 312 1028 317 1003 q 315 1069 307 1053 m 565 772 q 528 817 542 804 q 494 828 514 831 q 453 808 474 825 q 393 750 432 790 q 265 531 315 672 q 219 278 215 389 q 288 167 224 167 q 403 256 326 167 q 538 464 479 346 q 605 649 600 592 q 565 772 610 707 z "},"Ö":{"ha":833,"x_min":14,"x_max":819,"o":"m 353 1064 q 362 1101 346 1092 q 425 1111 378 1111 q 533 1077 499 1111 q 542 1000 568 1043 q 481 978 521 976 q 401 1005 442 979 q 353 1064 360 1031 m 611 1028 q 658 1056 628 1056 q 739 1028 688 1056 q 790 957 796 997 q 725 917 785 917 q 631 956 671 917 q 611 1028 590 994 m 397 869 q 499 883 461 886 q 608 850 538 879 q 749 728 679 821 q 819 572 819 635 q 681 288 819 476 q 431 42 543 100 q 289 19 363 4 q 154 76 215 33 q 53 194 93 119 q 14 353 14 269 q 50 596 14 486 q 147 753 86 706 q 244 803 208 801 q 333 767 281 806 q 369 728 371 740 q 325 678 368 715 q 243 515 272 633 q 226 295 214 396 q 289 194 239 194 q 415 313 317 194 q 550 508 513 431 q 565 643 590 589 q 442 739 539 697 q 350 817 361 772 q 397 869 342 856 z "},"Ù":{"ha":761,"x_min":14,"x_max":749,"o":"m 331 1097 q 345 1104 331 1101 q 383 1108 360 1107 q 436 1106 407 1108 q 522 1086 504 1099 q 539 1028 539 1074 q 527 974 539 990 q 483 958 515 958 q 388 1010 446 958 q 331 1097 331 1063 m 169 892 q 254 894 199 911 q 319 847 310 878 q 313 782 326 835 q 275 669 300 729 q 217 331 208 499 q 268 199 222 206 q 314 222 289 194 q 440 494 356 268 q 525 786 525 719 q 540 848 525 835 q 608 861 556 861 q 710 818 674 861 q 747 700 747 775 q 685 521 747 658 q 546 253 622 383 q 436 100 469 122 q 271 58 361 47 q 103 136 181 68 q 40 203 57 178 q 18 267 24 229 q 14 394 13 306 q 70 692 17 522 q 169 892 124 863 z "},"Ú":{"ha":856,"x_min":22,"x_max":835,"o":"m 457 1069 q 538 1104 457 1094 q 709 1103 619 1114 q 821 1067 799 1092 q 834 982 858 1021 q 757 961 810 943 q 624 981 706 981 q 507 1006 557 979 q 457 1069 457 1032 m 121 767 q 158 845 143 817 q 190 897 174 874 q 217 928 206 919 q 246 939 229 938 q 278 935 263 940 q 321 917 294 929 q 353 892 343 904 q 369 864 364 881 q 365 817 374 847 q 344 749 357 786 q 304 644 331 711 q 251 470 271 564 q 233 313 232 376 q 257 250 233 250 q 287 265 267 250 q 326 300 307 279 q 455 531 369 349 q 540 758 540 713 q 556 792 540 779 q 596 806 571 806 q 701 753 640 806 q 763 664 763 701 q 637 407 763 622 q 454 133 511 192 q 328 61 397 76 q 197 68 258 46 q 88 149 136 90 q 24 289 39 207 q 26 505 4 396 q 121 767 47 614 z "},"Û":{"ha":803,"x_min":14,"x_max":790,"o":"m 347 1058 q 422 1101 378 1093 q 592 1106 467 1110 q 765 1089 740 1100 q 789 1017 789 1078 q 743 908 789 938 q 628 914 697 879 q 508 922 560 950 q 404 917 467 901 q 317 972 342 933 q 317 1010 308 985 q 347 1058 326 1035 m 86 731 q 163 863 136 836 q 244 889 189 889 q 342 835 328 889 q 306 664 357 781 q 250 477 267 575 q 244 315 233 379 q 289 250 254 250 q 388 345 329 250 q 517 622 447 440 q 581 760 549 700 q 628 825 614 819 q 722 788 669 842 q 775 675 775 733 q 715 481 775 608 q 574 238 656 353 q 433 92 492 124 q 276 60 353 46 q 117 150 199 75 q 45 226 64 199 q 19 290 26 253 q 14 408 13 328 q 86 731 14 571 z "},"Ü":{"ha":886,"x_min":14,"x_max":869,"o":"m 364 1069 q 422 1109 381 1114 q 508 1053 464 1104 q 544 1002 542 1018 q 519 972 546 986 q 447 944 483 944 q 380 990 410 944 q 364 1069 350 1035 m 592 1011 q 629 1053 608 1053 q 708 1011 650 1053 q 751 969 744 986 q 742 931 758 951 q 664 908 719 903 q 589 944 608 914 q 592 1011 576 965 m 178 867 q 270 915 219 913 q 336 875 321 917 q 327 792 343 857 q 283 650 311 728 q 216 367 213 461 q 297 244 219 274 q 547 450 429 196 q 613 604 583 522 q 647 728 642 686 q 817 789 682 925 q 869 703 861 746 q 854 595 876 661 q 764 392 832 529 q 588 150 682 225 q 367 75 493 75 q 105 176 204 75 q 14 436 6 278 q 70 669 18 533 q 178 867 122 804 z "},"ß":{"ha":860,"x_min":14,"x_max":814,"o":"m 528 822 q 689 844 601 856 q 814 783 776 832 q 775 519 892 685 q 722 422 726 447 q 747 364 717 396 q 790 239 796 310 q 725 114 783 168 q 537 35 665 56 q 361 56 408 15 q 325 114 315 93 q 417 175 335 135 q 513 253 508 218 q 464 278 515 278 q 383 308 414 278 q 331 256 363 329 q 289 142 314 217 l 225 -56 l 119 -56 q 45 -47 76 -56 q 14 -25 14 -37 q 100 267 14 3 q 197 506 156 432 q 317 658 238 579 q 431 760 369 711 q 528 822 493 808 m 542 542 q 578 611 596 604 q 540 591 567 611 q 486 542 513 571 q 450 472 432 479 q 488 492 461 472 q 542 542 515 513 z "},"à":{"ha":608,"x_min":14,"x_max":594,"o":"m 278 889 q 358 942 301 963 q 469 806 421 919 q 494 722 494 744 q 469 681 494 700 q 450 640 444 664 q 497 556 456 617 q 578 294 565 458 l 594 133 l 486 147 q 328 125 378 161 q 110 80 206 42 q 14 253 14 118 q 53 431 14 332 q 150 598 93 529 q 253 667 207 667 q 306 699 294 667 q 292 778 317 732 q 275 834 279 800 q 278 889 271 868 m 289 383 q 342 506 351 476 q 288 476 335 526 q 267 450 278 464 q 214 328 204 357 q 268 357 221 307 q 289 383 278 369 z "},"á":{"ha":635,"x_min":14,"x_max":619,"o":"m 403 922 q 539 967 467 975 q 619 897 611 960 q 583 804 628 840 q 475 772 539 768 q 369 825 411 776 q 355 870 349 851 q 403 922 361 889 m 217 639 q 351 691 301 692 q 469 636 401 690 q 522 583 513 603 q 514 542 531 563 q 499 497 496 519 q 528 433 503 474 q 561 314 571 365 q 531 189 544 258 q 501 128 519 144 q 444 111 483 111 q 361 139 379 111 q 283 144 346 164 q 189 128 228 121 q 160 131 185 128 q 128 136 136 135 q 51 192 89 140 q 14 294 14 244 q 78 485 14 375 q 217 639 143 594 m 308 444 q 367 544 382 529 q 326 519 358 553 q 265 443 294 486 q 236 383 236 400 q 286 419 236 364 q 308 444 297 431 z "},"â":{"ha":696,"x_min":15,"x_max":672,"o":"m 257 900 q 347 971 303 942 q 407 1000 390 1000 q 522 938 453 1000 q 590 833 590 875 q 549 752 590 788 q 468 731 507 717 q 434 733 454 738 q 401 717 414 729 q 398 682 385 700 q 460 639 411 664 q 536 574 517 607 q 568 456 556 542 q 571 228 585 308 q 568 158 563 178 q 599 139 574 139 q 672 101 647 139 q 668 33 697 63 q 573 1 632 -1 q 457 44 514 4 q 390 72 418 71 q 299 53 361 74 q 77 68 157 0 q 16 274 -3 136 q 151 544 35 413 q 209 615 196 594 q 219 649 222 635 q 193 681 217 663 q 153 769 139 719 q 257 900 168 819 m 368 481 q 361 494 368 489 q 343 500 354 500 q 299 451 329 500 q 249 349 269 401 q 240 286 229 296 q 278 320 247 279 q 339 412 310 361 q 368 481 368 463 z "},"ä":{"ha":682,"x_min":17,"x_max":668,"o":"m 271 892 q 339 915 286 921 q 421 872 392 910 q 442 831 443 847 q 415 789 442 814 q 356 765 390 765 q 299 785 322 765 q 263 832 275 804 q 271 892 250 860 m 518 806 q 569 832 533 833 q 638 800 606 831 q 667 728 674 763 q 618 694 661 694 q 535 735 571 694 q 518 806 499 775 m 210 614 q 396 664 304 672 q 463 615 464 657 q 460 597 463 607 q 465 563 453 583 q 501 528 478 543 q 549 474 538 510 q 560 336 560 439 q 527 149 560 192 q 424 156 494 106 q 356 184 382 185 q 265 153 331 183 q 172 122 199 122 q 101 150 146 121 q 51 197 75 167 q 18 250 26 226 q 65 440 -1 313 q 210 614 132 567 m 382 553 q 326 578 356 592 q 254 494 297 564 q 204 357 178 369 q 299 422 225 347 q 363 502 339 464 q 382 553 388 540 z "},"ç":{"ha":510,"x_min":14,"x_max":496,"o":"m 300 586 q 447 639 421 639 q 495 594 489 639 q 464 522 501 550 q 328 377 419 489 q 236 244 236 265 q 325 217 236 228 q 419 167 408 208 q 375 33 431 125 q 310 -40 339 -24 q 211 -56 281 -56 q 125 -46 142 -56 q 117 -3 108 -36 q 110 51 122 19 q 72 108 97 83 q 31 169 47 133 q 14 231 14 206 q 108 424 14 307 q 300 586 201 540 z "},"è":{"ha":533,"x_min":13,"x_max":521,"o":"m 281 869 q 299 922 288 900 q 319 944 311 944 q 400 895 360 944 q 453 783 440 846 q 460 705 468 717 q 394 700 451 693 q 292 753 322 708 q 281 869 263 799 m 242 608 q 378 667 343 667 q 473 614 426 667 q 519 506 519 561 q 475 403 519 465 q 371 296 431 342 q 272 250 311 250 q 231 242 247 250 q 214 222 214 235 q 235 198 214 204 q 289 199 256 192 q 356 225 322 206 q 408 240 388 240 q 450 222 429 239 q 475 181 475 201 q 450 111 475 161 q 352 16 417 46 q 215 0 288 -14 q 89 69 143 14 q 13 243 17 140 q 72 446 10 346 q 242 608 133 546 z "},"é":{"ha":717,"x_min":17,"x_max":704,"o":"m 469 1011 q 527 1070 507 1057 q 569 1075 547 1083 q 636 1028 592 1067 l 703 972 l 611 889 q 444 808 504 790 q 411 872 411 819 q 428 940 411 900 q 469 1011 444 981 m 200 550 q 290 613 243 586 q 361 639 336 639 q 472 590 422 639 q 522 483 522 542 q 449 336 522 417 q 300 242 375 256 q 241 220 265 233 q 217 194 217 207 q 297 181 217 150 q 356 208 324 190 q 452 221 410 238 q 494 150 494 204 q 453 88 494 124 q 353 26 411 51 q 250 0 294 0 q 101 56 174 0 q 17 178 29 111 q 56 362 3 253 q 200 550 110 471 z "},"ê":{"ha":651,"x_min":28,"x_max":635,"o":"m 253 972 q 465 989 365 1019 q 614 861 564 958 q 634 735 649 793 q 576 672 619 678 q 478 711 532 665 q 447 749 460 728 q 433 781 433 769 q 342 778 433 832 q 297 747 321 765 q 159 701 229 697 q 78 758 89 704 q 129 875 69 803 q 253 972 189 947 m 236 589 q 249 597 240 592 q 306 632 290 622 q 345 651 322 642 q 375 662 368 661 q 398 656 382 663 q 422 642 414 650 q 451 615 431 635 q 456 611 454 613 q 513 499 514 556 q 450 372 513 443 l 386 294 l 503 194 l 433 139 q 251 83 363 83 q 78 139 139 83 q 28 357 -18 229 q 236 589 74 485 z "},"ë":{"ha":601,"x_min":14,"x_max":585,"o":"m 283 897 q 327 914 304 919 q 386 872 350 908 q 419 784 442 817 q 314 772 396 751 q 266 826 276 781 q 283 897 256 871 m 469 792 q 569 792 500 874 q 584 726 597 758 q 528 694 571 694 q 472 724 490 694 q 469 792 454 754 m 264 619 q 347 664 326 664 q 425 622 367 664 q 469 572 451 604 q 486 511 486 540 q 407 363 486 447 q 267 278 328 278 q 225 269 242 278 q 208 247 208 260 q 286 236 208 218 q 404 212 375 254 q 375 111 433 169 q 304 65 338 74 q 211 67 271 56 q 65 144 117 82 q 14 303 14 206 q 74 458 14 382 q 264 619 135 533 z "},"î":{"ha":547,"x_min":14,"x_max":522,"o":"m 176 911 q 269 956 231 947 q 357 956 308 965 q 521 854 485 928 q 493 681 557 781 q 414 614 451 615 q 335 675 376 613 q 294 718 310 713 q 257 703 278 724 q 152 668 208 665 q 62 713 96 671 q 57 800 28 754 q 176 911 76 839 m 82 447 q 185 601 140 576 q 301 572 229 626 q 324 556 317 561 q 336 538 331 550 q 342 519 342 526 q 337 491 342 513 q 326 451 332 469 q 304 392 319 433 l 254 250 q 385 142 318 197 l 326 83 q 181 38 267 21 q 51 139 96 56 q 26 195 33 175 q 14 237 18 215 q 19 289 10 258 q 41 351 29 319 q 82 447 53 382 z "},"ï":{"ha":476,"x_min":17,"x_max":460,"o":"m 63 917 q 103 944 76 940 q 153 936 129 947 q 197 900 178 925 q 215 844 215 875 q 202 794 215 810 q 160 778 189 778 q 78 831 115 778 q 63 917 42 883 m 315 842 q 399 831 344 869 q 460 739 454 793 q 443 671 468 681 q 351 694 418 661 q 301 765 314 715 q 315 842 289 814 m 154 647 q 231 692 194 692 q 310 650 268 693 q 317 643 313 647 q 349 581 353 607 q 286 433 344 556 q 282 425 283 428 q 233 319 244 350 q 226 269 222 289 q 254 225 231 250 q 280 128 301 172 q 188 83 258 83 q 83 119 125 83 q 25 216 40 156 q 17 349 10 276 q 60 501 24 421 q 154 647 96 581 z "},"ó":{"ha":682,"x_min":14,"x_max":668,"o":"m 447 897 q 477 957 458 942 q 542 972 496 972 q 632 949 599 972 q 668 897 665 926 q 642 838 671 867 q 556 800 613 810 q 447 897 414 771 m 192 558 q 390 606 285 617 q 550 519 496 594 l 608 444 l 550 325 q 247 28 407 28 q 85 93 157 28 q 14 239 14 158 q 67 419 14 322 q 192 558 121 515 m 347 425 q 319 446 347 458 q 264 372 285 428 q 244 267 222 264 q 292 319 258 268 q 347 425 347 406 z "},"ô":{"ha":631,"x_min":13,"x_max":617,"o":"m 297 831 q 467 885 376 881 q 594 847 557 890 q 617 775 617 815 q 594 701 617 735 q 542 667 572 667 q 444 650 489 667 q 421 624 417 639 q 469 567 425 608 q 526 453 526 515 q 464 261 525 392 q 349 104 419 160 q 203 50 278 49 q 67 111 128 51 q 13 265 14 164 q 59 464 13 365 q 181 608 106 563 q 242 671 244 647 q 236 678 242 675 q 213 746 196 706 q 297 831 229 786 m 317 467 q 310 490 317 479 q 292 500 303 500 q 251 456 269 500 q 233 353 233 411 q 240 310 236 311 q 256 326 244 310 q 275 361 260 335 q 317 467 311 424 z "},"ö":{"ha":629,"x_min":21,"x_max":617,"o":"m 254 847 q 301 866 269 865 q 399 850 332 867 q 551 796 514 821 q 588 722 588 771 q 575 685 588 693 q 526 686 563 676 q 379 714 494 693 q 265 769 306 726 q 254 847 225 811 m 165 558 q 272 625 233 613 q 379 628 310 638 q 547 546 479 615 q 615 389 615 476 q 496 181 615 304 q 378 78 419 100 q 263 56 336 56 q 115 101 178 56 q 21 233 53 147 q 41 392 -1 297 q 165 558 83 488 m 388 431 q 359 484 382 468 q 308 488 336 500 q 263 439 281 475 q 217 320 225 358 q 226 253 208 282 q 283 259 242 229 q 358 342 324 289 q 388 431 392 396 z "},"ù":{"ha":601,"x_min":18,"x_max":583,"o":"m 222 950 q 268 997 235 992 q 342 972 301 1003 q 414 883 383 940 q 442 754 463 793 q 339 736 422 715 q 240 821 279 751 q 222 950 201 890 m 78 581 q 149 661 115 651 q 242 628 183 671 q 278 576 275 603 q 261 472 282 550 q 243 387 249 425 q 242 344 238 349 q 257 351 244 340 q 289 382 269 361 q 328 431 308 403 q 463 527 393 515 q 569 469 532 539 q 583 298 597 417 q 528 122 568 179 q 483 86 503 89 q 414 106 464 83 q 348 126 372 125 q 306 111 324 128 q 190 85 271 75 q 64 142 110 96 q 18 216 26 179 q 19 347 10 253 q 44 475 26 406 q 78 581 61 544 z "},"ú":{"ha":626,"x_min":14,"x_max":608,"o":"m 242 989 q 316 1015 256 1026 q 414 956 376 1003 q 472 947 443 918 q 522 962 492 967 q 574 935 551 957 q 608 886 597 914 q 603 831 619 858 q 534 806 586 801 q 456 844 482 811 q 415 867 443 860 q 361 869 388 874 q 263 899 304 858 q 242 989 222 939 m 122 628 q 177 664 153 665 q 258 617 201 663 q 300 572 290 590 q 308 527 310 553 q 292 436 307 501 q 258 258 258 317 q 299 274 258 217 q 388 454 358 354 q 394 481 392 468 q 547 547 428 632 q 608 358 596 510 q 583 146 617 222 q 481 61 550 69 q 317 8 404 50 q 151 -10 224 -33 q 39 94 78 13 q 14 199 13 147 q 44 383 15 251 q 85 540 63 468 q 122 628 108 613 z "},"û":{"ha":708,"x_min":14,"x_max":675,"o":"m 369 861 q 452 919 407 894 q 522 944 497 944 q 669 871 621 944 q 675 717 718 797 q 603 669 657 678 q 531 692 549 660 q 453 703 514 713 q 392 708 426 699 q 333 733 357 717 q 297 781 293 767 q 363 854 300 796 q 369 861 367 858 m 142 603 q 147 613 144 606 q 190 661 176 657 q 268 642 206 667 l 269 640 l 271 640 l 272 640 l 275 639 q 326 610 304 628 q 347 578 347 592 q 368 551 347 563 q 417 539 389 539 q 514 510 483 535 q 557 428 544 486 q 569 247 569 369 l 569 28 l 489 28 q 423 39 456 28 q 378 67 390 50 q 233 92 349 104 q 76 119 139 78 q 14 236 14 161 q 57 417 14 294 q 142 603 100 540 z "},"ü":{"ha":643,"x_min":14,"x_max":625,"o":"m 272 842 q 342 860 293 864 q 406 833 390 857 q 461 833 424 804 q 552 848 496 863 q 625 792 608 833 q 604 732 639 751 q 478 711 569 713 q 278 754 343 704 q 272 842 224 796 m 83 433 q 164 580 138 549 q 231 606 190 611 q 282 581 265 601 q 303 519 299 561 q 317 457 308 461 q 364 486 326 453 q 420 520 401 519 q 483 492 439 521 q 539 429 519 468 q 567 322 558 390 q 575 221 575 272 q 569 153 575 169 q 505 113 553 114 q 406 150 457 113 q 351 175 369 175 q 297 150 332 175 q 156 113 231 104 q 42 181 81 122 q 15 265 10 226 q 83 433 21 304 z "},"ę":{"ha":642,"x_min":49,"x_max":625,"o":"m 325 658 q 556 614 449 717 q 586 575 581 590 q 585 538 592 560 q 550 458 578 515 q 426 310 506 369 q 275 250 347 250 q 218 213 231 250 q 242 153 206 175 q 389 181 264 139 q 576 242 544 239 q 625 208 608 246 q 595 126 636 174 q 419 -28 554 79 q 288 -53 379 -60 q 131 -8 196 -47 q 50 325 -50 100 q 178 535 103 443 q 325 658 253 628 z "},"’":{"ha":261,"x_min":15,"x_max":240,"o":"m 29 1033 q 120 1034 43 1049 q 226 997 197 1019 q 240 896 261 968 q 160 778 218 824 q 97 742 119 747 q 54 753 75 736 q 16 893 26 775 q 29 1033 6 1011 z "},"“":{"ha":411,"x_min":18,"x_max":399,"o":"m 58 272 q 133 331 92 321 q 194 306 174 340 q 225 286 200 294 q 275 278 250 278 q 331 265 301 278 q 378 233 361 253 q 397 180 400 206 q 361 92 394 154 q 300 13 324 25 q 208 11 276 0 q 64 28 103 28 q 21 70 33 28 q 19 171 8 113 q 58 272 29 229 z "},"”":{"ha":436,"x_min":21,"x_max":418,"o":"m 51 986 q 70 1029 65 1018 q 87 1056 75 1040 q 104 1074 99 1071 q 128 1078 110 1076 q 163 1078 147 1081 q 213 1069 178 1075 q 393 1014 354 1044 q 418 908 432 983 q 338 759 394 796 q 163 742 282 722 q 21 810 43 763 q 51 986 -1 858 z "},"•":{"ha":383,"x_min":22,"x_max":371,"o":"m 72 528 q 204 581 126 578 q 328 539 282 585 q 351 516 344 522 q 365 499 358 510 q 371 483 371 488 q 365 463 371 478 q 351 438 358 449 q 328 403 344 428 q 271 349 303 364 q 181 333 239 333 q 22 392 56 333 q 72 528 -11 450 z "},"€":{"ha":774,"x_min":14,"x_max":760,"o":"m 525 942 q 625 968 607 967 q 700 956 643 969 q 759 894 753 940 q 719 789 765 847 q 677 750 688 750 q 636 789 667 750 q 590 828 608 825 q 525 806 571 831 q 457 740 456 768 q 497 722 458 722 q 526 713 514 722 q 539 689 539 703 q 487 602 539 649 q 392 556 435 556 q 354 547 358 556 q 369 517 350 539 q 389 472 388 494 q 375 419 390 450 q 351 343 339 357 q 439 342 363 329 q 565 322 532 356 q 544 231 597 289 q 494 186 526 208 q 439 156 463 164 q 266 183 374 135 q 117 300 158 232 q 88 342 107 314 q 56 392 69 371 q 33 425 42 413 q 15 476 10 458 q 61 519 19 493 q 104 570 86 539 q 122 631 122 601 q 136 682 122 658 q 172 714 150 706 q 331 825 222 736 q 431 897 374 863 q 525 942 489 931 z "}}}
